<?xml version="1.0"?>
<svg xmlns="http://www.w3.org/2000/svg" xmlns:xlink="http://www.w3.org/1999/xlink" xmlns:svgjs="http://svgjs.com/svgjs" version="1.1" width="512" height="512" x="0" y="0" viewBox="0 0 511.99961 511" style="enable-background:new 0 0 512 512" xml:space="preserve" class=""><g><path xmlns="http://www.w3.org/2000/svg" d="m195.03125 450.570312c-24.820312 0-45.007812-20.191406-45.007812-45.007812 0-24.820312 20.1875-45.007812 45.007812-45.007812 24.816406 0 45.003906 20.1875 45.003906 45.007812 0 24.816406-20.1875 45.007812-45.003906 45.007812zm0 0" fill="#697c86" data-original="#697c86" style=""/><path xmlns="http://www.w3.org/2000/svg" d="m195.03125 420.5625c-8.277344 0-15.003906-6.722656-15.003906-15s6.726562-15.003906 15.003906-15.003906 15 6.726562 15 15.003906-6.722656 15-15 15zm0 0" fill="#1861c3" data-original="#465a61" style="" class=""/><path xmlns="http://www.w3.org/2000/svg" d="m407.0625 450.570312c-24.816406 0-45.007812-20.191406-45.007812-45.007812 0-24.820312 20.191406-45.007812 45.007812-45.007812s45.007812 20.1875 45.007812 45.007812c0 24.816406-20.191406 45.007812-45.007812 45.007812zm0 0" fill="#596c76" data-original="#596c76" style="" class=""/><path xmlns="http://www.w3.org/2000/svg" d="m407.0625 420.5625c-8.277344 0-15.003906-6.722656-15.003906-15s6.726562-15.003906 15.003906-15.003906 15 6.726562 15 15.003906-6.722656 15-15 15zm0 0" fill="#004aad" data-original="#3b4a51" style="" class=""/><path xmlns="http://www.w3.org/2000/svg" d="m454.46875 345.550781c0 8.402344-6.601562 15.003907-15 15.003907h-287.042969c-24.90625 0-45.007812-20.105469-45.007812-45.007813 0-22.800781 16.800781-41.707031 39.003906-44.40625 1.800781-.601563 3.902344-.601563 6.003906-.601563 3.597657 0 7.199219 1.503907 9.601563 3.902344l-9.003906 26.105469c-.296876 0-.296876 0-.597657 0-8.402343 0-15.003906 6.597656-15.003906 15s6.601563 15.003906 15.003906 15.003906h287.042969c8.398438 0 15 6.597657 15 15zm0 0" fill="#1861c3" data-original="#465a61" style="" class=""/><path xmlns="http://www.w3.org/2000/svg" d="m99.5625 60.542969c.953125 1.199219 17.109375 8.496093 33.375 15.640625.058594-1.292969.222656-2.574219-.070312-3.894532l-13.199219-60.011718c-1.511719-6.886719-7.605469-11.777344-14.652344-11.777344h-90.011719c-8.292968 0-15.003906 6.710938-15.003906 15.003906 0 8.289063 6.710938 15 15.003906 15h77.953125zm0 0" fill="#1861c3" data-original="#465a61" style="" class=""/><path xmlns="http://www.w3.org/2000/svg" d="m454.46875 345.550781c0 8.402344-6.601562 15.003907-15 15.003907h-141.125v-30.003907h141.125c8.398438 0 15 6.597657 15 15zm0 0" fill="#004aad" data-original="#3b4a51" style="" class=""/><path xmlns="http://www.w3.org/2000/svg" d="m509.078125 66.511719c-3-3.902344-7.203125-6.003907-12.003906-6.003907h-397.460938l46.808594 210.632813 6.601563 29.40625h284.042968c6.601563 0 12.601563-4.503906 14.402344-10.804687l60.007812-210.03125c1.203126-4.5.300782-9.601563-2.398437-13.199219zm0 0" fill="#95bb5b" data-original="#fdbf00" style="" class=""/><path xmlns="http://www.w3.org/2000/svg" d="m511.476562 79.710938-60.007812 210.03125c-1.800781 6.300781-7.800781 10.804687-14.402344 10.804687h-138.722656v-240.039063h198.730469c4.800781 0 9.003906 2.101563 12.003906 6.003907 2.699219 3.597656 3.601563 8.699219 2.398437 13.199219zm0 0" fill="#7fad39" data-original="#ff9f00" style="" class=""/></g></svg>
