<svg height="488pt" viewBox="0 -45 488.92884 488" width="488pt" xmlns="http://www.w3.org/2000/svg"><path d="m345 364.871094h-280c-18.21875-.019532-32.980469-14.78125-33-33v-187.425782c-.003906-3.773437.648438-7.523437 1.917969-11.078124-13.132813 4.695312-21.902344 17.132812-21.917969 31.078124v187.425782c.019531 18.21875 14.78125 32.980468 33 33h280c13.945312-.015625 26.382812-8.785156 31.082031-21.917969-3.558593 1.273437-7.304687 1.921875-11.082031 1.917969zm0 0" fill="#d4e1f4"/><path d="m327.800781 114.460938h.105469l77.9375-1.164063c3.863281-.058594 6.953125-3.238281 6.894531-7.105469-.058593-3.867187-3.238281-6.953125-7.105469-6.894531l-77.933593 1.164063c-3.863281.027343-6.976563 3.1875-6.949219 7.050781.027344 3.867187 3.183594 6.976562 7.050781 6.949219zm0 0" fill="#0635c9"/><path d="m365.445312 146.714844-37.046874.558594c-3.863282.027343-6.976563 3.183593-6.949219 7.050781.027343 3.863281 3.183593 6.976562 7.050781 6.949219h.105469l37.050781-.554688c3.867188-.027344 6.980469-3.183594 6.953125-7.050781-.027344-3.867188-3.183594-6.976563-7.050781-6.949219zm0 0" fill="#0635c9"/><path d="m463.769531 196.621094c31.925781-41.660156 33.621094-99.074219 4.207031-142.542969-29.414062-43.46875-83.34375-63.246094-133.886718-49.101563-50.546875 14.148438-86.371094 59.042969-88.949219 111.464844-.128906 2.601563-.171875 5.199219-.128906 7.820313.027343 2.070312.113281 4.128906.25 6.179687 1.898437 30.175782 15.015625 58.546875 36.769531 79.542969 2.320312 2.25 4.707031 4.390625 7.167969 6.429687l-83.390625 70.726563c-10.800782 9.210937-26.6875 9.222656-37.5.023437l-153.679688-130.132812-3.109375-2.628906c-1.765625-1.488282-4.148437-2.011719-6.375-1.398438-2.226562.609375-4.007812 2.277344-4.765625 4.457032v.011718c-.3554685 1.046875-.4609372 2.164063-.300781 3.261719.230469 1.699219 1.085937 3.25 2.402344 4.347656l11.519531 9.761719 145.261719 123c16.023437 13.648438 39.585937 13.636719 55.597656-.019531l85.160156-72.230469c.195313-.167969.382813-.34375.558594-.53125l.152344-.148438c17.722656 11.515626 38.164062 18.179688 59.269531 19.320313 2.929688.167969 5.875.230469 8.828125.1875 1.730469-.03125 3.453125-.089844 5.171875-.1875 12.054688-.699219 23.941406-3.191406 35.261719-7.402344l65.097656 10.390625c.367187.058594.738281.089844 1.109375.089844 2.367188-.003906 4.574219-1.203125 5.867188-3.1875 1.289062-1.984375 1.492187-4.488281.535156-6.652344zm-54.140625 26.089844c-.367187-.050782-.738281-.078126-1.109375-.078126-.863281 0-1.722656.160157-2.53125.46875-33.925781 13.195313-72.222656 8.382813-101.828125-12.800781-.171875-.136719-.339844-.257812-.511718-.378906-4.1875-3.039063-8.15625-6.375-11.867188-9.980469-42.265625-40.765625-44.316406-107.800781-4.617188-151.074218 39.695313-43.273438 106.65625-47 150.910157-8.398438 44.253906 38.601562 49.65625 105.445312 12.175781 150.652344-1.691406 2.042968-2.078125 4.867187-1 7.292968l14.601562 32.957032zm0 0" fill="#1ae5be"/><path d="m374 244.234375v106.636719c.011719 10.972656-3.832031 21.597656-10.859375 30.019531-.34375.648437-.78125 1.238281-1.300781 1.75-.324219.316406-.675782.601563-1.050782.851563-8.835937 9.195312-21.039062 14.386718-33.789062 14.378906h-280c-12.769531.003906-24.988281-5.203125-33.828125-14.417969-.367187-.242187-.707031-.515625-1.023437-.820313-.519532-.515624-.960938-1.109374-1.296876-1.761718-7.019531-8.417969-10.8593745-19.035156-10.851562-30v-187.429688c0-.910156.03125-1.820312.078125-2.707031.0625-1.101563.160156-2.183594.300781-3.261719v-.011718c3.035156-23.4375 22.984375-40.992188 46.621094-41.019532h198.140625c-.128906 2.601563-.171875 5.199219-.128906 7.820313.027343 2.070312.113281 4.128906.25 6.179687h-198.261719c-18.222656.003906-32.996094 14.777344-33 33v187.429688c-.007812 5.507812 1.371094 10.929687 4.011719 15.761718l83.628906-85.539062c2.703125-2.765625 7.136719-2.816406 9.898437-.109375 2.765626 2.703125 2.8125 7.132813.109376 9.898437l-84.449219 86.371094c5.703125 4.304688 12.65625 6.628906 19.800781 6.617188h280c7.125.007812 14.0625-2.300782 19.761719-6.578125l-84.921875-86.402344c-2.707032-2.757813-2.667969-7.1875.089844-9.898437 2.757812-2.707032 7.191406-2.667969 9.898437.089843l84.132813 85.601563c2.652343-4.847656 4.042968-10.285156 4.039062-15.8125v-106.636719c2.929688.167969 5.875.230469 8.828125.1875 1.730469-.03125 3.453125-.089844 5.171875-.1875zm0 0" fill="#0635c9"/></svg>