<?xml version="1.0"?>
<svg xmlns="http://www.w3.org/2000/svg" xmlns:xlink="http://www.w3.org/1999/xlink" xmlns:svgjs="http://svgjs.com/svgjs" version="1.1" width="512" height="512" x="0" y="0" viewBox="0 0 512 512" style="enable-background:new 0 0 512 512" xml:space="preserve" class=""><g><g xmlns="http://www.w3.org/2000/svg"><g><g fill="#00a963"><path d="m360.694 242.2-10.417 11.609h-85.277l-9-11.609-12.447-18.774v-117.958l12.447-9.638h39.991l14.561 9.291 64.343 115.699z" fill="#649716" data-original="#00a963" style="" class=""/><path d="m480.59 432.65v79.35h-224.59l-12.447-17.136v-50.553l12.447-11.661 18.44-17.22h196.08z" fill="#649716" data-original="#00a963" style="" class=""/><path d="m480.841 188.34-.251 180.06-18.994 18.595h-187.405l-18.191-18.595-12.45-18.85v-64.85l12.45-12.5 10.702-9.626h101.933l11.485 9.626 5.325-5.17 14.181 21.895 3.494 18.785 2.497-24.356 62.713-96.632z" fill="#649716" data-original="#00a963" style="" class=""/></g><path d="m256.014 368.4v-96.2h124.12l4.114-7.668-13.532-22.332h-114.702v-146.37h-32.12v416.17h32.12v-79.35h224.59v-64.25z" fill="#e2e2eb" data-original="#e2e2eb" style="" class=""/></g><g><g fill="#85c882"><path d="m191.75 95.83 13.505 18.319v95.489l-13.505 15.432-20.71 19.8h-147.06l-23.98-19.8v-129.24z" fill="#98d141" data-original="#85c882" style="" class=""/><path d="m191.75 289.32 13.505 21.935v177.192l-13.505 23.553h-80.87l-15-25.69v-171.31l15-25.68 12.5-9.6h57.88z" fill="#98d141" data-original="#85c882" style="" class=""/><path d="m80.88 289.32 15 24.318v174.639l-15 23.723h-80.88v-222.68l11.723-9.6h57.873z" fill="#98d141" data-original="#85c882" style="" class=""/></g><path d="m223.88 95.83v416.17h-32.13v-222.68h-80.87v222.68h-30v-222.68h-80.88v-64.25h191.75v-129.24z" fill="#f5f5f8" data-original="#f5f5f8" style="" class=""/></g><g><path d="m403.371 0c77.35 1.96 130.22 82.42 99.99 153.64l-22.52 34.7-77.47 119.37-10.58-44.89-29.751-126.22z" fill="#1b90e5" data-original="#dc7d00" style="" class=""/><path d="m403.371 0v307.71l-23-35.51-19.43-30-55.99-86.46c-33.231-70.9 20.15-153.76 98.42-155.74z" fill="#88cbfb" data-original="#ff9e22" style="" class=""/><g><path d="m417.67 91.4v30h-14.3l-7.15-15 7.15-15z" fill="#e2e2eb" data-original="#e2e2eb" style="" class=""/><path d="m389.07 91.4h14.3v30h-14.3z" fill="#f5f5f8" data-original="#f5f5f8" style="" class=""/></g></g></g></g></svg>
