<?xml version="1.0" encoding="UTF-8"?>
<svg xmlns="http://www.w3.org/2000/svg" xmlns:xlink="http://www.w3.org/1999/xlink" width="157.5pt" height="157.499993pt" viewBox="0 0 157.5 157.499993" version="1.2">
<g id="surface1">
<path style=" stroke:none;fill-rule:nonzero;fill:rgb(83.139038%,88.238525%,95.689392%);fill-opacity:1;" d="M 25.222656 133.398438 L 25.222656 31.335938 C 25.21875 30.785156 25.273438 30.234375 25.378906 29.695312 C 25.488281 29.152344 25.648438 28.625 25.859375 28.113281 C 26.070312 27.601562 26.332031 27.117188 26.636719 26.660156 C 26.945312 26.199219 27.296875 25.773438 27.6875 25.386719 C 28.082031 24.996094 28.507812 24.648438 28.96875 24.34375 C 29.429688 24.039062 29.917969 23.78125 30.429688 23.574219 C 30.941406 23.367188 31.46875 23.210938 32.011719 23.105469 C 32.558594 23.003906 33.105469 22.953125 33.65625 22.960938 L 25.175781 22.960938 C 24.625 22.953125 24.074219 23.003906 23.53125 23.105469 C 22.988281 23.210938 22.460938 23.367188 21.949219 23.574219 C 21.4375 23.78125 20.949219 24.039062 20.488281 24.34375 C 20.027344 24.648438 19.601562 24.996094 19.207031 25.386719 C 18.816406 25.773438 18.464844 26.199219 18.15625 26.660156 C 17.847656 27.117188 17.589844 27.601562 17.378906 28.113281 C 17.164062 28.625 17.007812 29.152344 16.898438 29.695312 C 16.792969 30.234375 16.738281 30.785156 16.742188 31.335938 L 16.742188 133.398438 C 16.742188 138.078125 20.492188 141.984375 25.175781 141.984375 L 33.65625 141.984375 C 28.972656 141.984375 25.222656 138.078125 25.222656 133.398438 Z M 25.222656 133.398438 "/>
<path style=" stroke:none;fill-rule:nonzero;fill:rgb(0%,29.019165%,67.83905%);fill-opacity:1;" d="M 101.507812 143.679688 C 107.121094 143.679688 111.734375 139.007812 111.734375 133.394531 L 111.734375 115.125 L 108.339844 115.125 L 108.339844 133.394531 C 108.335938 133.84375 108.292969 134.289062 108.203125 134.730469 C 108.113281 135.171875 107.984375 135.597656 107.8125 136.015625 C 107.640625 136.429688 107.429688 136.824219 107.179688 137.199219 C 106.933594 137.570312 106.648438 137.917969 106.332031 138.238281 C 106.015625 138.558594 105.671875 138.84375 105.300781 139.09375 C 104.929688 139.347656 104.535156 139.5625 104.121094 139.738281 C 103.707031 139.914062 103.28125 140.046875 102.84375 140.140625 C 102.402344 140.230469 101.957031 140.28125 101.507812 140.285156 L 25.175781 140.285156 C 21.433594 140.285156 18.4375 137.136719 18.4375 133.394531 L 18.4375 31.335938 C 18.433594 30.894531 18.476562 30.457031 18.5625 30.023438 C 18.648438 29.589844 18.777344 29.171875 18.945312 28.761719 C 19.117188 28.355469 19.324219 27.96875 19.570312 27.601562 C 19.816406 27.234375 20.097656 26.898438 20.410156 26.585938 C 20.722656 26.277344 21.0625 26 21.433594 25.757812 C 21.800781 25.511719 22.191406 25.308594 22.597656 25.144531 C 23.007812 24.976562 23.429688 24.855469 23.863281 24.773438 C 24.296875 24.691406 24.734375 24.652344 25.175781 24.65625 L 34.269531 24.65625 L 34.269531 28.722656 C 31.722656 29.46875 29.585938 31.949219 29.585938 34.886719 C 29.585938 35.308594 29.625 35.722656 29.707031 36.132812 C 29.789062 36.546875 29.910156 36.945312 30.070312 37.332031 C 30.230469 37.71875 30.429688 38.089844 30.664062 38.4375 C 30.894531 38.785156 31.160156 39.109375 31.457031 39.40625 C 31.753906 39.703125 32.078125 39.96875 32.425781 40.199219 C 32.773438 40.433594 33.144531 40.628906 33.53125 40.792969 C 33.917969 40.953125 34.316406 41.074219 34.730469 41.15625 C 35.140625 41.238281 35.554688 41.277344 35.976562 41.277344 C 36.394531 41.277344 36.8125 41.238281 37.222656 41.15625 C 37.632812 41.074219 38.035156 40.953125 38.421875 40.792969 C 38.808594 40.628906 39.175781 40.433594 39.527344 40.199219 C 39.875 39.96875 40.199219 39.703125 40.496094 39.40625 C 40.792969 39.109375 41.054688 38.785156 41.289062 38.4375 C 41.523438 38.089844 41.71875 37.71875 41.878906 37.332031 C 42.039062 36.945312 42.160156 36.546875 42.242188 36.132812 C 42.324219 35.722656 42.367188 35.308594 42.367188 34.886719 C 42.375 34.183594 42.273438 33.5 42.050781 32.832031 C 41.832031 32.164062 41.507812 31.550781 41.082031 30.992188 C 40.652344 30.433594 40.148438 29.957031 39.5625 29.570312 C 38.976562 29.179688 38.34375 28.898438 37.660156 28.722656 L 37.660156 24.65625 L 52.078125 24.65625 L 52.078125 28.722656 C 51.394531 28.898438 50.761719 29.179688 50.171875 29.566406 C 49.582031 29.953125 49.074219 30.429688 48.640625 30.988281 C 48.210938 31.546875 47.882812 32.160156 47.660156 32.828125 C 47.433594 33.496094 47.324219 34.183594 47.328125 34.886719 C 47.332031 35.308594 47.371094 35.722656 47.453125 36.136719 C 47.535156 36.546875 47.65625 36.945312 47.816406 37.335938 C 47.980469 37.722656 48.175781 38.089844 48.410156 38.441406 C 48.644531 38.789062 48.910156 39.113281 49.207031 39.410156 C 49.503906 39.707031 49.824219 39.972656 50.175781 40.203125 C 50.523438 40.4375 50.894531 40.632812 51.28125 40.796875 C 51.667969 40.957031 52.070312 41.078125 52.480469 41.160156 C 52.894531 41.242188 53.308594 41.28125 53.730469 41.28125 C 54.148438 41.28125 54.566406 41.242188 54.976562 41.160156 C 55.390625 41.078125 55.789062 40.957031 56.175781 40.796875 C 56.566406 40.632812 56.933594 40.4375 57.28125 40.203125 C 57.632812 39.972656 57.953125 39.707031 58.253906 39.410156 C 58.550781 39.113281 58.816406 38.789062 59.046875 38.441406 C 59.28125 38.089844 59.480469 37.722656 59.640625 37.335938 C 59.800781 36.945312 59.921875 36.546875 60.003906 36.136719 C 60.085938 35.722656 60.128906 35.308594 60.128906 34.886719 C 60.117188 34.191406 59.996094 33.519531 59.769531 32.863281 C 59.542969 32.207031 59.222656 31.601562 58.804688 31.046875 C 58.386719 30.492188 57.890625 30.019531 57.320312 29.621094 C 56.753906 29.222656 56.136719 28.925781 55.472656 28.722656 L 55.472656 24.65625 L 69.609375 24.65625 L 69.609375 28.722656 C 67.0625 29.46875 64.929688 31.949219 64.929688 34.886719 C 64.929688 35.308594 64.972656 35.722656 65.054688 36.132812 C 65.136719 36.546875 65.257812 36.945312 65.417969 37.332031 C 65.578125 37.71875 65.773438 38.089844 66.007812 38.4375 C 66.242188 38.785156 66.507812 39.109375 66.800781 39.40625 C 67.097656 39.703125 67.421875 39.964844 67.769531 40.199219 C 68.121094 40.433594 68.488281 40.628906 68.875 40.789062 C 69.261719 40.949219 69.664062 41.070312 70.074219 41.152344 C 70.484375 41.234375 70.902344 41.277344 71.320312 41.277344 C 71.738281 41.277344 72.15625 41.234375 72.566406 41.152344 C 72.980469 41.070312 73.378906 40.949219 73.765625 40.789062 C 74.152344 40.628906 74.523438 40.433594 74.871094 40.199219 C 75.21875 39.964844 75.542969 39.703125 75.839844 39.40625 C 76.136719 39.109375 76.398438 38.785156 76.632812 38.4375 C 76.867188 38.089844 77.0625 37.71875 77.222656 37.332031 C 77.382812 36.945312 77.503906 36.546875 77.585938 36.132812 C 77.667969 35.722656 77.710938 35.308594 77.710938 34.886719 C 77.71875 34.183594 77.613281 33.5 77.394531 32.832031 C 77.171875 32.164062 76.847656 31.550781 76.421875 30.992188 C 75.996094 30.433594 75.488281 29.957031 74.902344 29.570312 C 74.316406 29.179688 73.679688 28.898438 73 28.722656 L 73 24.65625 L 87.417969 24.65625 L 87.417969 28.722656 C 86.734375 28.898438 86.101562 29.179688 85.511719 29.566406 C 84.921875 29.953125 84.414062 30.429688 83.984375 30.988281 C 83.554688 31.546875 83.226562 32.160156 83.003906 32.828125 C 82.777344 33.496094 82.667969 34.183594 82.675781 34.886719 C 82.679688 35.304688 82.722656 35.71875 82.804688 36.128906 C 82.890625 36.539062 83.011719 36.9375 83.175781 37.324219 C 83.335938 37.707031 83.535156 38.074219 83.769531 38.421875 C 84 38.769531 84.265625 39.089844 84.5625 39.382812 C 84.859375 39.679688 85.183594 39.941406 85.53125 40.171875 C 85.878906 40.40625 86.246094 40.601562 86.632812 40.761719 C 87.019531 40.917969 87.417969 41.039062 87.832031 41.121094 C 88.242188 41.203125 88.65625 41.242188 89.074219 41.242188 C 89.492188 41.242188 89.90625 41.203125 90.316406 41.121094 C 90.726562 41.039062 91.125 40.917969 91.511719 40.761719 C 91.898438 40.601562 92.265625 40.40625 92.613281 40.171875 C 92.964844 39.941406 93.285156 39.679688 93.582031 39.382812 C 93.878906 39.089844 94.144531 38.769531 94.378906 38.421875 C 94.613281 38.074219 94.808594 37.707031 94.972656 37.324219 C 95.132812 36.9375 95.257812 36.539062 95.339844 36.128906 C 95.425781 35.71875 95.46875 35.304688 95.472656 34.886719 C 95.472656 31.949219 93.355469 29.46875 90.8125 28.722656 L 90.8125 24.65625 L 101.507812 24.65625 C 105.25 24.65625 108.339844 27.59375 108.339844 31.335938 L 108.339844 98.160156 L 111.734375 98.160156 L 111.734375 31.335938 C 111.734375 25.722656 107.121094 21.261719 101.507812 21.261719 L 90.8125 21.261719 L 90.8125 16 C 90.8125 15.773438 90.769531 15.558594 90.683594 15.347656 C 90.597656 15.140625 90.472656 14.957031 90.316406 14.796875 C 90.15625 14.640625 89.972656 14.515625 89.765625 14.429688 C 89.554688 14.34375 89.339844 14.300781 89.117188 14.300781 C 88.890625 14.300781 88.675781 14.34375 88.464844 14.429688 C 88.257812 14.515625 88.074219 14.640625 87.914062 14.796875 C 87.757812 14.957031 87.632812 15.140625 87.546875 15.347656 C 87.460938 15.558594 87.417969 15.773438 87.417969 16 L 87.417969 21.261719 L 73 21.261719 L 73 16 C 73 15.773438 72.957031 15.558594 72.871094 15.347656 C 72.785156 15.140625 72.664062 14.957031 72.503906 14.796875 C 72.34375 14.640625 72.160156 14.515625 71.953125 14.429688 C 71.746094 14.34375 71.527344 14.300781 71.304688 14.300781 C 71.078125 14.300781 70.863281 14.34375 70.65625 14.429688 C 70.445312 14.515625 70.265625 14.640625 70.105469 14.796875 C 69.945312 14.957031 69.824219 15.140625 69.738281 15.347656 C 69.652344 15.558594 69.609375 15.773438 69.609375 16 L 69.609375 21.261719 L 55.472656 21.261719 L 55.472656 16 C 55.472656 15.773438 55.429688 15.558594 55.34375 15.347656 C 55.257812 15.140625 55.132812 14.957031 54.976562 14.796875 C 54.816406 14.640625 54.632812 14.515625 54.425781 14.429688 C 54.21875 14.34375 54 14.300781 53.777344 14.300781 C 53.550781 14.300781 53.335938 14.34375 53.125 14.429688 C 52.917969 14.515625 52.734375 14.640625 52.578125 14.796875 C 52.417969 14.957031 52.292969 15.140625 52.207031 15.347656 C 52.121094 15.558594 52.078125 15.773438 52.078125 16 L 52.078125 21.261719 L 37.660156 21.261719 L 37.660156 16 C 37.660156 15.773438 37.617188 15.558594 37.53125 15.347656 C 37.445312 15.140625 37.324219 14.957031 37.164062 14.796875 C 37.003906 14.640625 36.820312 14.515625 36.613281 14.429688 C 36.40625 14.34375 36.191406 14.300781 35.964844 14.300781 C 35.738281 14.300781 35.523438 14.34375 35.316406 14.429688 C 35.109375 14.515625 34.925781 14.640625 34.765625 14.796875 C 34.605469 14.957031 34.484375 15.140625 34.398438 15.347656 C 34.3125 15.558594 34.269531 15.773438 34.269531 16 L 34.269531 21.261719 L 25.175781 21.261719 C 24.511719 21.257812 23.851562 21.320312 23.199219 21.445312 C 22.550781 21.570312 21.914062 21.757812 21.300781 22.011719 C 20.6875 22.261719 20.101562 22.570312 19.546875 22.9375 C 18.996094 23.304688 18.480469 23.71875 18.011719 24.1875 C 17.539062 24.65625 17.121094 25.167969 16.75 25.71875 C 16.378906 26.269531 16.066406 26.851562 15.8125 27.464844 C 15.558594 28.078125 15.367188 28.710938 15.238281 29.363281 C 15.109375 30.011719 15.042969 30.671875 15.042969 31.335938 L 15.042969 133.394531 C 15.042969 139.007812 19.5625 143.679688 25.175781 143.679688 Z M 38.988281 34.886719 C 38.988281 35.285156 38.914062 35.667969 38.761719 36.035156 C 38.609375 36.402344 38.394531 36.726562 38.109375 37.007812 C 37.828125 37.289062 37.503906 37.503906 37.136719 37.65625 C 36.769531 37.808594 36.386719 37.886719 35.988281 37.886719 C 35.59375 37.886719 35.210938 37.808594 34.84375 37.65625 C 34.472656 37.503906 34.148438 37.289062 33.867188 37.007812 C 33.585938 36.726562 33.371094 36.402344 33.21875 36.035156 C 33.066406 35.667969 32.988281 35.285156 32.988281 34.886719 C 32.988281 34.488281 33.066406 34.105469 33.21875 33.738281 C 33.371094 33.371094 33.585938 33.046875 33.867188 32.765625 C 34.148438 32.484375 34.472656 32.265625 34.84375 32.113281 C 35.210938 31.960938 35.59375 31.886719 35.992188 31.886719 C 36.386719 31.886719 36.769531 31.964844 37.136719 32.117188 C 37.503906 32.269531 37.828125 32.484375 38.109375 32.765625 C 38.390625 33.046875 38.609375 33.371094 38.761719 33.738281 C 38.914062 34.105469 38.988281 34.488281 38.988281 34.886719 Z M 56.667969 34.886719 C 56.667969 35.285156 56.589844 35.667969 56.4375 36.035156 C 56.285156 36.402344 56.070312 36.726562 55.789062 37.007812 C 55.507812 37.289062 55.183594 37.503906 54.816406 37.65625 C 54.445312 37.808594 54.066406 37.886719 53.667969 37.886719 C 53.269531 37.886719 52.886719 37.808594 52.519531 37.65625 C 52.152344 37.503906 51.828125 37.289062 51.546875 37.007812 C 51.265625 36.726562 51.046875 36.402344 50.894531 36.035156 C 50.742188 35.667969 50.667969 35.285156 50.667969 34.886719 C 50.667969 34.488281 50.742188 34.105469 50.894531 33.738281 C 51.046875 33.371094 51.265625 33.046875 51.546875 32.765625 C 51.828125 32.484375 52.152344 32.265625 52.519531 32.113281 C 52.886719 31.960938 53.269531 31.886719 53.667969 31.886719 C 54.0625 31.886719 54.445312 31.964844 54.8125 32.117188 C 55.179688 32.269531 55.503906 32.484375 55.785156 32.765625 C 56.066406 33.046875 56.285156 33.371094 56.4375 33.738281 C 56.589844 34.105469 56.664062 34.488281 56.667969 34.886719 Z M 74.34375 34.886719 C 74.34375 35.285156 74.265625 35.667969 74.113281 36.035156 C 73.960938 36.402344 73.746094 36.726562 73.464844 37.007812 C 73.183594 37.289062 72.859375 37.503906 72.492188 37.65625 C 72.125 37.808594 71.742188 37.886719 71.34375 37.886719 C 70.945312 37.886719 70.5625 37.808594 70.195312 37.65625 C 69.828125 37.503906 69.503906 37.289062 69.222656 37.007812 C 68.941406 36.726562 68.722656 36.402344 68.570312 36.035156 C 68.417969 35.667969 68.34375 35.285156 68.34375 34.886719 C 68.34375 34.488281 68.417969 34.105469 68.570312 33.738281 C 68.722656 33.371094 68.941406 33.046875 69.222656 32.765625 C 69.503906 32.484375 69.828125 32.265625 70.195312 32.113281 C 70.5625 31.960938 70.945312 31.886719 71.34375 31.886719 C 71.742188 31.886719 72.125 31.964844 72.492188 32.117188 C 72.859375 32.269531 73.183594 32.484375 73.464844 32.765625 C 73.746094 33.046875 73.960938 33.371094 74.113281 33.738281 C 74.265625 34.105469 74.34375 34.488281 74.34375 34.886719 Z M 92.019531 34.886719 C 92.019531 35.285156 91.941406 35.667969 91.789062 36.035156 C 91.636719 36.402344 91.421875 36.726562 91.140625 37.007812 C 90.859375 37.289062 90.535156 37.503906 90.167969 37.65625 C 89.800781 37.808594 89.417969 37.886719 89.019531 37.886719 C 88.621094 37.886719 88.238281 37.808594 87.871094 37.65625 C 87.503906 37.503906 87.179688 37.289062 86.898438 37.007812 C 86.617188 36.726562 86.398438 36.402344 86.25 36.035156 C 86.097656 35.667969 86.019531 35.285156 86.019531 34.886719 C 86.019531 34.488281 86.097656 34.105469 86.25 33.738281 C 86.398438 33.371094 86.617188 33.046875 86.898438 32.765625 C 87.179688 32.484375 87.503906 32.265625 87.871094 32.113281 C 88.238281 31.960938 88.621094 31.886719 89.019531 31.886719 C 89.417969 31.886719 89.800781 31.964844 90.167969 32.117188 C 90.535156 32.269531 90.859375 32.484375 91.140625 32.765625 C 91.421875 33.046875 91.636719 33.371094 91.789062 33.738281 C 91.941406 34.105469 92.019531 34.488281 92.019531 34.886719 Z M 92.019531 34.886719 "/>
<path style=" stroke:none;fill-rule:nonzero;fill:rgb(0%,29.019165%,67.83905%);fill-opacity:1;" d="M 99.347656 57.449219 L 56.941406 57.449219 C 56.71875 57.449219 56.5 57.496094 56.292969 57.582031 C 56.085938 57.667969 55.902344 57.789062 55.742188 57.949219 C 55.582031 58.105469 55.460938 58.289062 55.375 58.5 C 55.289062 58.707031 55.246094 58.921875 55.246094 59.148438 C 55.246094 59.371094 55.289062 59.589844 55.375 59.796875 C 55.460938 60.003906 55.582031 60.1875 55.742188 60.347656 C 55.902344 60.507812 56.085938 60.628906 56.292969 60.714844 C 56.5 60.800781 56.71875 60.84375 56.941406 60.84375 L 99.347656 60.84375 C 99.574219 60.84375 99.789062 60.800781 100 60.714844 C 100.207031 60.628906 100.390625 60.507812 100.550781 60.347656 C 100.707031 60.1875 100.832031 60.003906 100.917969 59.796875 C 101.003906 59.589844 101.046875 59.371094 101.046875 59.148438 C 101.046875 58.921875 101.003906 58.707031 100.917969 58.5 C 100.832031 58.289062 100.707031 58.105469 100.550781 57.949219 C 100.390625 57.789062 100.207031 57.667969 100 57.582031 C 99.789062 57.496094 99.574219 57.449219 99.347656 57.449219 Z M 99.347656 57.449219 "/>
<path style=" stroke:none;fill-rule:nonzero;fill:rgb(0%,29.019165%,67.83905%);fill-opacity:1;" d="M 39.8125 58.832031 L 36.042969 62.4375 L 34.515625 60.90625 C 34.359375 60.746094 34.175781 60.621094 33.964844 60.53125 C 33.757812 60.441406 33.539062 60.394531 33.3125 60.394531 C 33.085938 60.394531 32.867188 60.4375 32.65625 60.523438 C 32.445312 60.609375 32.261719 60.730469 32.101562 60.890625 C 31.941406 61.050781 31.816406 61.238281 31.730469 61.449219 C 31.644531 61.65625 31.601562 61.875 31.605469 62.101562 C 31.605469 62.328125 31.652344 62.546875 31.742188 62.757812 C 31.828125 62.964844 31.953125 63.148438 32.117188 63.308594 L 34.820312 66.007812 C 34.976562 66.164062 35.15625 66.285156 35.359375 66.371094 C 35.566406 66.457031 35.777344 66.503906 36 66.503906 C 36.222656 66.507812 36.433594 66.46875 36.640625 66.386719 C 36.847656 66.304688 37.03125 66.1875 37.191406 66.035156 L 42.160156 61.285156 C 42.324219 61.128906 42.449219 60.949219 42.542969 60.742188 C 42.632812 60.539062 42.683594 60.320312 42.6875 60.09375 C 42.695312 59.871094 42.65625 59.652344 42.574219 59.441406 C 42.492188 59.230469 42.375 59.042969 42.21875 58.878906 C 42.0625 58.71875 41.882812 58.589844 41.675781 58.5 C 41.46875 58.410156 41.253906 58.359375 41.027344 58.355469 C 40.800781 58.351562 40.582031 58.390625 40.371094 58.472656 C 40.164062 58.554688 39.976562 58.675781 39.8125 58.832031 Z M 39.8125 58.832031 "/>
<path style=" stroke:none;fill-rule:nonzero;fill:rgb(0%,29.019165%,67.83905%);fill-opacity:1;" d="M 37.152344 50.921875 C 36.394531 50.921875 35.648438 50.996094 34.90625 51.140625 C 34.164062 51.289062 33.445312 51.507812 32.746094 51.796875 C 32.046875 52.085938 31.382812 52.441406 30.757812 52.859375 C 30.128906 53.28125 29.546875 53.757812 29.011719 54.292969 C 28.476562 54.828125 28 55.410156 27.578125 56.035156 C 27.160156 56.664062 26.804688 57.328125 26.515625 58.027344 C 26.226562 58.726562 26.007812 59.445312 25.859375 60.1875 C 25.714844 60.929688 25.640625 61.675781 25.640625 62.433594 C 25.640625 63.1875 25.714844 63.9375 25.859375 64.679688 C 26.007812 65.421875 26.226562 66.140625 26.515625 66.839844 C 26.804688 67.539062 27.160156 68.199219 27.578125 68.828125 C 28 69.457031 28.476562 70.039062 29.011719 70.574219 C 29.546875 71.109375 30.128906 71.585938 30.757812 72.003906 C 31.382812 72.425781 32.046875 72.78125 32.746094 73.070312 C 33.445312 73.359375 34.164062 73.578125 34.90625 73.726562 C 35.648438 73.871094 36.394531 73.945312 37.152344 73.945312 C 37.90625 73.945312 38.65625 73.871094 39.398438 73.726562 C 40.140625 73.578125 40.859375 73.359375 41.558594 73.070312 C 42.257812 72.78125 42.917969 72.425781 43.546875 72.003906 C 44.175781 71.585938 44.757812 71.109375 45.292969 70.574219 C 45.828125 70.039062 46.304688 69.457031 46.726562 68.828125 C 47.144531 68.199219 47.5 67.539062 47.789062 66.839844 C 48.078125 66.140625 48.296875 65.421875 48.445312 64.679688 C 48.589844 63.9375 48.664062 63.1875 48.664062 62.433594 C 48.664062 61.675781 48.589844 60.929688 48.441406 60.1875 C 48.292969 59.445312 48.074219 58.726562 47.785156 58.027344 C 47.496094 57.332031 47.140625 56.667969 46.722656 56.039062 C 46.300781 55.410156 45.824219 54.832031 45.289062 54.296875 C 44.753906 53.761719 44.171875 53.285156 43.546875 52.863281 C 42.917969 52.445312 42.253906 52.089844 41.554688 51.800781 C 40.859375 51.511719 40.136719 51.292969 39.398438 51.144531 C 38.65625 50.996094 37.90625 50.921875 37.152344 50.921875 Z M 37.152344 70.554688 C 36.617188 70.554688 36.089844 70.5 35.566406 70.398438 C 35.046875 70.292969 34.539062 70.140625 34.042969 69.933594 C 33.550781 69.730469 33.085938 69.480469 32.640625 69.183594 C 32.199219 68.886719 31.789062 68.550781 31.410156 68.175781 C 31.035156 67.796875 30.695312 67.386719 30.402344 66.945312 C 30.105469 66.5 29.855469 66.03125 29.648438 65.539062 C 29.445312 65.046875 29.292969 64.539062 29.1875 64.015625 C 29.085938 63.492188 29.03125 62.964844 29.03125 62.433594 C 29.03125 61.898438 29.085938 61.371094 29.1875 60.847656 C 29.292969 60.324219 29.445312 59.816406 29.648438 59.324219 C 29.855469 58.832031 30.105469 58.363281 30.402344 57.921875 C 30.695312 57.476562 31.035156 57.066406 31.410156 56.691406 C 31.789062 56.3125 32.199219 55.976562 32.640625 55.679688 C 33.085938 55.386719 33.550781 55.136719 34.042969 54.929688 C 34.539062 54.726562 35.046875 54.574219 35.566406 54.46875 C 36.089844 54.363281 36.617188 54.3125 37.152344 54.3125 C 37.683594 54.3125 38.214844 54.363281 38.738281 54.46875 C 39.257812 54.574219 39.765625 54.726562 40.257812 54.929688 C 40.753906 55.136719 41.21875 55.386719 41.664062 55.679688 C 42.105469 55.976562 42.515625 56.3125 42.894531 56.691406 C 43.269531 57.066406 43.609375 57.476562 43.902344 57.921875 C 44.199219 58.363281 44.449219 58.832031 44.652344 59.324219 C 44.859375 59.816406 45.011719 60.324219 45.117188 60.847656 C 45.21875 61.371094 45.273438 61.898438 45.273438 62.433594 C 45.273438 62.964844 45.21875 63.492188 45.113281 64.015625 C 45.011719 64.539062 44.855469 65.046875 44.652344 65.539062 C 44.449219 66.03125 44.199219 66.5 43.902344 66.941406 C 43.605469 67.386719 43.269531 67.796875 42.890625 68.171875 C 42.515625 68.550781 42.105469 68.886719 41.660156 69.183594 C 41.21875 69.480469 40.75 69.730469 40.257812 69.933594 C 39.765625 70.136719 39.257812 70.292969 38.734375 70.398438 C 38.214844 70.5 37.683594 70.554688 37.152344 70.554688 Z M 37.152344 70.554688 "/>
<path style=" stroke:none;fill-rule:nonzero;fill:rgb(0%,29.019165%,67.83905%);fill-opacity:1;" d="M 101.046875 87.417969 C 101.046875 87.195312 101.003906 86.976562 100.917969 86.769531 C 100.832031 86.5625 100.707031 86.378906 100.550781 86.21875 C 100.390625 86.058594 100.207031 85.9375 100 85.851562 C 99.789062 85.765625 99.574219 85.722656 99.347656 85.722656 L 56.941406 85.722656 C 56.71875 85.722656 56.5 85.765625 56.292969 85.851562 C 56.085938 85.9375 55.902344 86.058594 55.742188 86.21875 C 55.582031 86.378906 55.460938 86.5625 55.375 86.769531 C 55.289062 86.976562 55.246094 87.195312 55.246094 87.417969 C 55.246094 87.644531 55.289062 87.859375 55.375 88.066406 C 55.460938 88.277344 55.582031 88.460938 55.742188 88.617188 C 55.902344 88.777344 56.085938 88.898438 56.292969 88.984375 C 56.5 89.070312 56.71875 89.113281 56.941406 89.113281 L 99.347656 89.113281 C 99.574219 89.113281 99.789062 89.070312 100 88.984375 C 100.207031 88.898438 100.390625 88.777344 100.550781 88.617188 C 100.707031 88.460938 100.832031 88.277344 100.917969 88.066406 C 101.003906 87.859375 101.046875 87.644531 101.046875 87.417969 Z M 101.046875 87.417969 "/>
<path style=" stroke:none;fill-rule:nonzero;fill:rgb(0%,29.019165%,67.83905%);fill-opacity:1;" d="M 39.8125 87.105469 L 36.042969 90.707031 L 34.515625 89.179688 C 34.359375 89.015625 34.175781 88.890625 33.964844 88.800781 C 33.757812 88.714844 33.539062 88.667969 33.3125 88.667969 C 33.085938 88.664062 32.867188 88.707031 32.65625 88.792969 C 32.445312 88.878906 32.261719 89.003906 32.101562 89.164062 C 31.941406 89.324219 31.816406 89.507812 31.730469 89.71875 C 31.644531 89.929688 31.601562 90.148438 31.605469 90.375 C 31.605469 90.601562 31.652344 90.820312 31.738281 91.027344 C 31.828125 91.238281 31.953125 91.421875 32.117188 91.578125 L 34.820312 94.28125 C 34.976562 94.4375 35.15625 94.558594 35.359375 94.644531 C 35.566406 94.730469 35.777344 94.773438 36 94.777344 C 36.222656 94.777344 36.433594 94.738281 36.640625 94.660156 C 36.847656 94.578125 37.03125 94.460938 37.191406 94.304688 L 42.160156 89.558594 C 42.324219 89.402344 42.449219 89.222656 42.542969 89.015625 C 42.632812 88.808594 42.683594 88.59375 42.6875 88.367188 C 42.695312 88.140625 42.65625 87.921875 42.574219 87.710938 C 42.496094 87.5 42.375 87.316406 42.21875 87.152344 C 42.0625 86.988281 41.882812 86.859375 41.675781 86.769531 C 41.46875 86.679688 41.253906 86.632812 41.027344 86.628906 C 40.800781 86.625 40.582031 86.664062 40.371094 86.746094 C 40.164062 86.828125 39.976562 86.949219 39.8125 87.105469 Z M 39.8125 87.105469 "/>
<path style=" stroke:none;fill-rule:nonzero;fill:rgb(0%,29.019165%,67.83905%);fill-opacity:1;" d="M 37.152344 79.191406 C 36.394531 79.191406 35.648438 79.265625 34.90625 79.414062 C 34.164062 79.5625 33.445312 79.777344 32.746094 80.066406 C 32.046875 80.359375 31.382812 80.710938 30.757812 81.132812 C 30.128906 81.550781 29.546875 82.03125 29.011719 82.5625 C 28.476562 83.097656 28 83.679688 27.578125 84.308594 C 27.160156 84.9375 26.804688 85.601562 26.515625 86.300781 C 26.226562 86.996094 26.007812 87.71875 25.859375 88.457031 C 25.714844 89.199219 25.640625 89.949219 25.640625 90.703125 C 25.640625 91.460938 25.714844 92.210938 25.859375 92.949219 C 26.007812 93.691406 26.226562 94.410156 26.515625 95.109375 C 26.804688 95.808594 27.160156 96.472656 27.578125 97.101562 C 28 97.730469 28.476562 98.3125 29.011719 98.84375 C 29.546875 99.378906 30.128906 99.855469 30.757812 100.277344 C 31.382812 100.695312 32.046875 101.050781 32.746094 101.339844 C 33.445312 101.628906 34.164062 101.847656 34.90625 101.996094 C 35.648438 102.144531 36.394531 102.21875 37.152344 102.21875 C 37.90625 102.21875 38.65625 102.144531 39.398438 101.996094 C 40.140625 101.847656 40.859375 101.628906 41.558594 101.339844 C 42.257812 101.050781 42.917969 100.695312 43.546875 100.277344 C 44.175781 99.855469 44.757812 99.378906 45.292969 98.84375 C 45.828125 98.3125 46.304688 97.730469 46.726562 97.101562 C 47.144531 96.472656 47.5 95.808594 47.789062 95.109375 C 48.078125 94.410156 48.296875 93.691406 48.445312 92.949219 C 48.589844 92.210938 48.664062 91.460938 48.664062 90.703125 C 48.664062 89.949219 48.589844 89.199219 48.441406 88.460938 C 48.292969 87.71875 48.074219 87 47.785156 86.300781 C 47.496094 85.601562 47.140625 84.941406 46.722656 84.3125 C 46.300781 83.683594 45.824219 83.101562 45.289062 82.566406 C 44.753906 82.035156 44.171875 81.554688 43.546875 81.136719 C 42.917969 80.714844 42.253906 80.359375 41.554688 80.070312 C 40.859375 79.78125 40.136719 79.5625 39.398438 79.414062 C 38.65625 79.265625 37.90625 79.191406 37.152344 79.191406 Z M 37.152344 98.824219 C 36.617188 98.824219 36.089844 98.773438 35.566406 98.667969 C 35.046875 98.566406 34.539062 98.410156 34.042969 98.207031 C 33.550781 98.003906 33.085938 97.753906 32.640625 97.457031 C 32.199219 97.160156 31.789062 96.824219 31.410156 96.445312 C 31.035156 96.070312 30.695312 95.660156 30.402344 95.214844 C 30.105469 94.773438 29.855469 94.304688 29.648438 93.8125 C 29.445312 93.320312 29.292969 92.8125 29.1875 92.289062 C 29.085938 91.765625 29.03125 91.238281 29.03125 90.703125 C 29.03125 90.171875 29.085938 89.644531 29.1875 89.121094 C 29.292969 88.597656 29.445312 88.089844 29.648438 87.597656 C 29.855469 87.105469 30.105469 86.636719 30.402344 86.191406 C 30.695312 85.75 31.035156 85.339844 31.410156 84.960938 C 31.789062 84.585938 32.199219 84.25 32.640625 83.953125 C 33.085938 83.65625 33.550781 83.40625 34.042969 83.203125 C 34.539062 83 35.046875 82.84375 35.566406 82.742188 C 36.089844 82.636719 36.617188 82.585938 37.152344 82.585938 C 37.683594 82.585938 38.214844 82.636719 38.738281 82.742188 C 39.257812 82.84375 39.765625 83 40.257812 83.203125 C 40.753906 83.40625 41.21875 83.65625 41.664062 83.953125 C 42.105469 84.25 42.515625 84.585938 42.894531 84.960938 C 43.269531 85.339844 43.609375 85.75 43.902344 86.191406 C 44.199219 86.636719 44.449219 87.105469 44.652344 87.597656 C 44.859375 88.089844 45.011719 88.597656 45.117188 89.121094 C 45.21875 89.644531 45.273438 90.171875 45.273438 90.703125 C 45.273438 91.238281 45.21875 91.765625 45.113281 92.289062 C 45.011719 92.8125 44.855469 93.316406 44.652344 93.8125 C 44.449219 94.304688 44.199219 94.769531 43.902344 95.214844 C 43.605469 95.65625 43.269531 96.066406 42.890625 96.445312 C 42.515625 96.820312 42.105469 97.15625 41.660156 97.453125 C 41.21875 97.75 40.75 98 40.257812 98.203125 C 39.765625 98.410156 39.257812 98.5625 38.734375 98.667969 C 38.214844 98.773438 37.683594 98.824219 37.152344 98.824219 Z M 37.152344 98.824219 "/>
<path style=" stroke:none;fill-rule:nonzero;fill:rgb(0%,29.019165%,67.83905%);fill-opacity:1;" d="M 85.523438 115.691406 C 85.523438 115.464844 85.480469 115.25 85.394531 115.042969 C 85.308594 114.832031 85.1875 114.648438 85.027344 114.492188 C 84.867188 114.332031 84.683594 114.210938 84.476562 114.125 C 84.269531 114.039062 84.054688 113.992188 83.828125 113.992188 L 56.941406 113.992188 C 56.71875 113.992188 56.5 114.039062 56.292969 114.125 C 56.085938 114.210938 55.902344 114.332031 55.742188 114.492188 C 55.582031 114.648438 55.460938 114.832031 55.375 115.042969 C 55.289062 115.25 55.246094 115.464844 55.246094 115.691406 C 55.246094 115.914062 55.289062 116.132812 55.375 116.339844 C 55.460938 116.546875 55.582031 116.730469 55.742188 116.890625 C 55.902344 117.050781 56.085938 117.171875 56.292969 117.257812 C 56.5 117.34375 56.71875 117.386719 56.941406 117.386719 L 83.828125 117.386719 C 84.054688 117.386719 84.269531 117.34375 84.476562 117.257812 C 84.683594 117.171875 84.867188 117.050781 85.027344 116.890625 C 85.1875 116.730469 85.308594 116.546875 85.394531 116.339844 C 85.480469 116.132812 85.523438 115.914062 85.523438 115.691406 Z M 85.523438 115.691406 "/>
<path style=" stroke:none;fill-rule:nonzero;fill:rgb(0%,29.019165%,67.83905%);fill-opacity:1;" d="M 39.8125 115.375 L 36.042969 118.980469 L 34.515625 117.449219 C 34.359375 117.289062 34.175781 117.164062 33.964844 117.074219 C 33.757812 116.984375 33.539062 116.9375 33.3125 116.9375 C 33.085938 116.9375 32.867188 116.976562 32.65625 117.066406 C 32.445312 117.152344 32.261719 117.273438 32.101562 117.433594 C 31.941406 117.59375 31.816406 117.78125 31.730469 117.988281 C 31.644531 118.199219 31.601562 118.417969 31.605469 118.644531 C 31.605469 118.871094 31.652344 119.089844 31.738281 119.300781 C 31.828125 119.507812 31.953125 119.691406 32.117188 119.851562 L 34.820312 122.550781 C 34.976562 122.707031 35.15625 122.828125 35.359375 122.914062 C 35.566406 123 35.777344 123.046875 36 123.046875 C 36.222656 123.050781 36.433594 123.011719 36.640625 122.929688 C 36.847656 122.847656 37.03125 122.730469 37.191406 122.578125 L 42.160156 117.828125 C 42.324219 117.671875 42.449219 117.492188 42.542969 117.285156 C 42.632812 117.082031 42.683594 116.863281 42.6875 116.636719 C 42.695312 116.414062 42.65625 116.195312 42.574219 115.984375 C 42.492188 115.773438 42.375 115.585938 42.21875 115.421875 C 42.0625 115.261719 41.882812 115.132812 41.675781 115.042969 C 41.46875 114.953125 41.25 114.902344 41.027344 114.898438 C 40.800781 114.894531 40.582031 114.933594 40.371094 115.015625 C 40.164062 115.097656 39.976562 115.21875 39.8125 115.375 Z M 39.8125 115.375 "/>
<path style=" stroke:none;fill-rule:nonzero;fill:rgb(0%,29.019165%,67.83905%);fill-opacity:1;" d="M 37.152344 107.464844 C 36.394531 107.464844 35.648438 107.539062 34.90625 107.683594 C 34.164062 107.832031 33.445312 108.050781 32.746094 108.339844 C 32.046875 108.628906 31.382812 108.984375 30.757812 109.402344 C 30.128906 109.824219 29.546875 110.300781 29.011719 110.835938 C 28.476562 111.371094 28 111.953125 27.578125 112.578125 C 27.160156 113.207031 26.804688 113.871094 26.515625 114.570312 C 26.226562 115.269531 26.007812 115.988281 25.859375 116.730469 C 25.714844 117.472656 25.640625 118.21875 25.640625 118.976562 C 25.640625 119.730469 25.714844 120.480469 25.859375 121.222656 C 26.007812 121.964844 26.226562 122.683594 26.515625 123.382812 C 26.804688 124.082031 27.160156 124.742188 27.578125 125.371094 C 28 126 28.476562 126.582031 29.011719 127.117188 C 29.546875 127.652344 30.128906 128.128906 30.757812 128.546875 C 31.382812 128.96875 32.046875 129.324219 32.746094 129.613281 C 33.445312 129.902344 34.164062 130.121094 34.90625 130.269531 C 35.648438 130.414062 36.394531 130.488281 37.152344 130.488281 C 37.90625 130.488281 38.65625 130.414062 39.398438 130.269531 C 40.140625 130.121094 40.859375 129.902344 41.558594 129.613281 C 42.257812 129.324219 42.917969 128.96875 43.546875 128.546875 C 44.175781 128.128906 44.757812 127.652344 45.292969 127.117188 C 45.828125 126.582031 46.304688 126 46.726562 125.371094 C 47.144531 124.742188 47.5 124.082031 47.789062 123.382812 C 48.078125 122.683594 48.296875 121.964844 48.445312 121.222656 C 48.589844 120.480469 48.664062 119.730469 48.664062 118.976562 C 48.664062 118.21875 48.589844 117.472656 48.441406 116.730469 C 48.292969 115.988281 48.074219 115.269531 47.785156 114.570312 C 47.496094 113.875 47.140625 113.210938 46.722656 112.582031 C 46.300781 111.953125 45.824219 111.375 45.289062 110.839844 C 44.753906 110.304688 44.171875 109.828125 43.546875 109.40625 C 42.917969 108.988281 42.253906 108.632812 41.554688 108.34375 C 40.859375 108.054688 40.136719 107.835938 39.398438 107.6875 C 38.65625 107.539062 37.90625 107.464844 37.152344 107.464844 Z M 37.152344 127.097656 C 36.617188 127.097656 36.089844 127.042969 35.566406 126.941406 C 35.046875 126.835938 34.539062 126.683594 34.042969 126.476562 C 33.550781 126.273438 33.085938 126.023438 32.640625 125.726562 C 32.199219 125.429688 31.789062 125.09375 31.410156 124.71875 C 31.035156 124.339844 30.695312 123.929688 30.402344 123.488281 C 30.105469 123.042969 29.855469 122.574219 29.648438 122.082031 C 29.445312 121.589844 29.292969 121.082031 29.1875 120.558594 C 29.085938 120.035156 29.03125 119.507812 29.03125 118.976562 C 29.03125 118.441406 29.085938 117.914062 29.1875 117.390625 C 29.292969 116.867188 29.445312 116.359375 29.648438 115.867188 C 29.855469 115.375 30.105469 114.90625 30.402344 114.464844 C 30.695312 114.019531 31.035156 113.609375 31.410156 113.234375 C 31.789062 112.855469 32.199219 112.519531 32.640625 112.222656 C 33.085938 111.929688 33.550781 111.679688 34.042969 111.472656 C 34.539062 111.269531 35.046875 111.117188 35.566406 111.011719 C 36.089844 110.90625 36.617188 110.855469 37.152344 110.855469 C 37.683594 110.855469 38.214844 110.90625 38.738281 111.011719 C 39.257812 111.117188 39.765625 111.269531 40.257812 111.472656 C 40.753906 111.679688 41.21875 111.929688 41.664062 112.222656 C 42.105469 112.519531 42.515625 112.855469 42.894531 113.234375 C 43.269531 113.609375 43.609375 114.019531 43.902344 114.464844 C 44.199219 114.90625 44.449219 115.375 44.652344 115.867188 C 44.859375 116.359375 45.011719 116.867188 45.117188 117.390625 C 45.21875 117.914062 45.273438 118.441406 45.273438 118.976562 C 45.273438 119.507812 45.21875 120.035156 45.113281 120.558594 C 45.011719 121.082031 44.855469 121.589844 44.652344 122.082031 C 44.449219 122.574219 44.199219 123.042969 43.902344 123.484375 C 43.605469 123.929688 43.269531 124.339844 42.890625 124.714844 C 42.515625 125.09375 42.105469 125.429688 41.660156 125.726562 C 41.21875 126.023438 40.75 126.273438 40.257812 126.476562 C 39.765625 126.679688 39.257812 126.835938 38.734375 126.941406 C 38.214844 127.042969 37.683594 127.097656 37.152344 127.097656 Z M 37.152344 127.097656 "/>
<path style=" stroke:none;fill-rule:nonzero;fill:rgb(0%,29.019165%,67.83905%);fill-opacity:1;" d="M 56.941406 66.496094 L 79.558594 66.496094 C 79.785156 66.496094 80 66.453125 80.207031 66.367188 C 80.417969 66.28125 80.601562 66.160156 80.757812 66 C 80.917969 65.84375 81.039062 65.660156 81.125 65.449219 C 81.210938 65.242188 81.253906 65.027344 81.253906 64.800781 C 81.253906 64.578125 81.210938 64.359375 81.125 64.152344 C 81.039062 63.945312 80.917969 63.761719 80.757812 63.601562 C 80.601562 63.441406 80.417969 63.320312 80.207031 63.234375 C 80 63.148438 79.785156 63.105469 79.558594 63.105469 L 56.941406 63.105469 C 56.71875 63.105469 56.5 63.148438 56.292969 63.234375 C 56.085938 63.320312 55.902344 63.441406 55.742188 63.601562 C 55.582031 63.761719 55.460938 63.945312 55.375 64.152344 C 55.289062 64.359375 55.246094 64.578125 55.246094 64.800781 C 55.246094 65.027344 55.289062 65.242188 55.375 65.449219 C 55.460938 65.660156 55.582031 65.84375 55.742188 66 C 55.902344 66.160156 56.085938 66.28125 56.292969 66.367188 C 56.5 66.453125 56.71875 66.496094 56.941406 66.496094 Z M 56.941406 66.496094 "/>
<path style=" stroke:none;fill-rule:nonzero;fill:rgb(0%,29.019165%,67.83905%);fill-opacity:1;" d="M 56.941406 94.769531 L 79.558594 94.769531 C 79.785156 94.769531 80 94.726562 80.207031 94.640625 C 80.417969 94.554688 80.601562 94.433594 80.757812 94.273438 C 80.917969 94.113281 81.039062 93.929688 81.125 93.722656 C 81.210938 93.515625 81.253906 93.296875 81.253906 93.074219 C 81.253906 92.847656 81.210938 92.632812 81.125 92.425781 C 81.039062 92.214844 80.917969 92.03125 80.757812 91.875 C 80.601562 91.714844 80.417969 91.59375 80.207031 91.507812 C 80 91.421875 79.785156 91.375 79.558594 91.375 L 56.941406 91.375 C 56.71875 91.375 56.5 91.421875 56.292969 91.507812 C 56.085938 91.59375 55.902344 91.714844 55.742188 91.875 C 55.582031 92.03125 55.460938 92.214844 55.375 92.425781 C 55.289062 92.632812 55.246094 92.847656 55.246094 93.074219 C 55.246094 93.296875 55.289062 93.515625 55.375 93.722656 C 55.460938 93.929688 55.582031 94.113281 55.742188 94.273438 C 55.902344 94.433594 56.085938 94.554688 56.292969 94.640625 C 56.5 94.726562 56.71875 94.769531 56.941406 94.769531 Z M 56.941406 94.769531 "/>
<path style=" stroke:none;fill-rule:nonzero;fill:rgb(0%,29.019165%,67.83905%);fill-opacity:1;" d="M 56.941406 119.648438 C 56.71875 119.648438 56.5 119.691406 56.292969 119.777344 C 56.085938 119.863281 55.902344 119.984375 55.742188 120.144531 C 55.582031 120.304688 55.460938 120.488281 55.375 120.695312 C 55.289062 120.902344 55.246094 121.121094 55.246094 121.34375 C 55.246094 121.570312 55.289062 121.785156 55.375 121.992188 C 55.460938 122.203125 55.582031 122.386719 55.742188 122.542969 C 55.902344 122.703125 56.085938 122.824219 56.292969 122.910156 C 56.5 122.996094 56.71875 123.039062 56.941406 123.039062 L 79.558594 123.039062 C 79.785156 123.039062 80 122.996094 80.207031 122.910156 C 80.417969 122.824219 80.601562 122.703125 80.757812 122.542969 C 80.917969 122.386719 81.039062 122.203125 81.125 121.992188 C 81.210938 121.785156 81.253906 121.570312 81.253906 121.34375 C 81.253906 121.121094 81.210938 120.902344 81.125 120.695312 C 81.039062 120.488281 80.917969 120.304688 80.757812 120.144531 C 80.601562 119.984375 80.417969 119.863281 80.207031 119.777344 C 80 119.691406 79.785156 119.648438 79.558594 119.648438 Z M 56.941406 119.648438 "/>
<path style=" stroke:none;fill-rule:nonzero;fill:rgb(0%,29.019165%,67.83905%);fill-opacity:1;" d="M 24.9375 34.863281 C 24.9375 34.636719 24.894531 34.421875 24.808594 34.214844 C 24.722656 34.003906 24.601562 33.820312 24.441406 33.664062 C 24.28125 33.503906 24.101562 33.382812 23.890625 33.296875 C 23.683594 33.210938 23.46875 33.164062 23.242188 33.164062 C 23.019531 33.164062 22.800781 33.210938 22.59375 33.296875 C 22.386719 33.382812 22.203125 33.503906 22.042969 33.664062 C 21.882812 33.820312 21.761719 34.003906 21.675781 34.214844 C 21.589844 34.421875 21.546875 34.636719 21.546875 34.863281 L 21.546875 36.644531 C 21.546875 36.867188 21.589844 37.085938 21.675781 37.292969 C 21.761719 37.5 21.882812 37.683594 22.042969 37.84375 C 22.203125 38 22.386719 38.125 22.59375 38.210938 C 22.800781 38.296875 23.019531 38.339844 23.242188 38.339844 C 23.46875 38.339844 23.683594 38.296875 23.890625 38.210938 C 24.101562 38.125 24.28125 38 24.441406 37.84375 C 24.601562 37.683594 24.722656 37.5 24.808594 37.292969 C 24.894531 37.085938 24.9375 36.867188 24.9375 36.644531 Z M 24.9375 34.863281 "/>
<path style=" stroke:none;fill-rule:nonzero;fill:rgb(0%,29.019165%,67.83905%);fill-opacity:1;" d="M 23.242188 40.316406 C 23.019531 40.316406 22.800781 40.359375 22.59375 40.445312 C 22.386719 40.53125 22.203125 40.652344 22.042969 40.8125 C 21.882812 40.972656 21.761719 41.15625 21.675781 41.363281 C 21.589844 41.570312 21.546875 41.789062 21.546875 42.011719 L 21.546875 58.410156 C 21.546875 58.636719 21.589844 58.851562 21.675781 59.058594 C 21.761719 59.265625 21.882812 59.449219 22.042969 59.609375 C 22.203125 59.769531 22.386719 59.890625 22.59375 59.976562 C 22.800781 60.0625 23.019531 60.105469 23.242188 60.105469 C 23.46875 60.105469 23.683594 60.0625 23.890625 59.976562 C 24.101562 59.890625 24.28125 59.769531 24.441406 59.609375 C 24.601562 59.449219 24.722656 59.265625 24.808594 59.058594 C 24.894531 58.851562 24.9375 58.636719 24.9375 58.410156 L 24.9375 42.011719 C 24.9375 41.789062 24.894531 41.570312 24.808594 41.363281 C 24.722656 41.15625 24.601562 40.972656 24.441406 40.8125 C 24.28125 40.652344 24.101562 40.53125 23.890625 40.445312 C 23.683594 40.359375 23.46875 40.316406 23.242188 40.316406 Z M 23.242188 40.316406 "/>
<path style=" stroke:none;fill-rule:nonzero;fill:rgb(49.798584%,67.83905%,22.349548%);fill-opacity:1;" d="M 141.425781 86.042969 C 141.109375 85.558594 140.746094 85.109375 140.339844 84.695312 C 139.933594 84.28125 139.488281 83.914062 139.011719 83.585938 C 138.53125 83.261719 138.023438 82.984375 137.492188 82.761719 C 136.957031 82.535156 136.40625 82.363281 135.839844 82.246094 C 135.273438 82.128906 134.699219 82.066406 134.117188 82.0625 C 133.539062 82.058594 132.964844 82.109375 132.394531 82.21875 C 131.828125 82.328125 131.273438 82.492188 130.738281 82.707031 C 130.199219 82.925781 129.6875 83.195312 129.203125 83.511719 L 101.96875 101.398438 C 101.769531 101.527344 101.605469 101.691406 101.476562 101.890625 C 101.347656 102.089844 101.265625 102.304688 101.226562 102.539062 C 101.1875 102.773438 101.195312 103.003906 101.253906 103.234375 C 101.3125 103.460938 101.414062 103.671875 101.5625 103.859375 C 101.691406 104.027344 101.847656 104.164062 102.03125 104.273438 C 102.214844 104.382812 102.410156 104.453125 102.621094 104.488281 C 102.832031 104.523438 103.042969 104.519531 103.25 104.472656 C 103.457031 104.429688 103.652344 104.351562 103.828125 104.234375 L 129.054688 87.667969 L 131.105469 90.792969 L 88.371094 118.855469 L 86.320312 115.734375 L 94.347656 110.460938 C 94.535156 110.339844 94.691406 110.183594 94.820312 109.996094 C 94.945312 109.8125 95.03125 109.609375 95.078125 109.386719 C 95.125 109.167969 95.125 108.949219 95.082031 108.726562 C 95.042969 108.503906 94.957031 108.300781 94.835938 108.113281 C 94.710938 107.925781 94.554688 107.765625 94.371094 107.640625 C 94.183594 107.515625 93.980469 107.429688 93.761719 107.382812 C 93.539062 107.335938 93.320312 107.335938 93.097656 107.378906 C 92.878906 107.417969 92.671875 107.503906 92.484375 107.625 L 83.046875 113.824219 C 83.027344 113.835938 83.011719 113.851562 82.996094 113.863281 C 82.953125 113.894531 82.910156 113.921875 82.871094 113.957031 C 82.828125 113.992188 82.800781 114.023438 82.765625 114.054688 C 82.746094 114.078125 82.726562 114.097656 82.707031 114.117188 C 82.6875 114.140625 82.667969 114.152344 82.652344 114.175781 C 82.636719 114.195312 82.628906 114.214844 82.613281 114.230469 C 82.585938 114.269531 82.5625 114.308594 82.535156 114.347656 C 82.519531 114.375 82.5 114.402344 82.484375 114.433594 C 82.480469 114.441406 82.472656 114.445312 82.46875 114.453125 L 75.964844 126.746094 C 75.894531 126.875 75.84375 127.011719 75.8125 127.152344 C 75.777344 127.296875 75.765625 127.441406 75.769531 127.585938 C 75.773438 127.730469 75.792969 127.875 75.835938 128.015625 C 75.878906 128.15625 75.933594 128.289062 76.011719 128.414062 C 76.085938 128.539062 76.175781 128.652344 76.28125 128.753906 C 76.386719 128.855469 76.5 128.945312 76.628906 129.015625 C 76.757812 129.089844 76.890625 129.144531 77.03125 129.179688 C 77.171875 129.21875 77.316406 129.234375 77.464844 129.234375 L 77.507812 129.234375 L 91.84375 128.859375 C 91.878906 128.859375 91.914062 128.851562 91.945312 128.851562 C 91.980469 128.847656 92.019531 128.847656 92.058594 128.839844 C 92.101562 128.832031 92.144531 128.820312 92.191406 128.8125 C 92.222656 128.804688 92.253906 128.796875 92.285156 128.789062 C 92.359375 128.765625 92.433594 128.738281 92.503906 128.707031 C 92.519531 128.699219 92.535156 128.6875 92.554688 128.679688 C 92.609375 128.652344 92.660156 128.621094 92.714844 128.589844 C 92.71875 128.585938 92.726562 128.585938 92.730469 128.582031 L 138.898438 98.261719 C 139.382812 97.945312 139.828125 97.582031 140.242188 97.175781 C 140.652344 96.769531 141.023438 96.324219 141.347656 95.847656 C 141.671875 95.367188 141.949219 94.859375 142.175781 94.328125 C 142.398438 93.792969 142.570312 93.242188 142.6875 92.675781 C 142.804688 92.109375 142.867188 91.535156 142.871094 90.957031 C 142.875 90.375 142.824219 89.800781 142.714844 89.234375 C 142.609375 88.664062 142.445312 88.109375 142.230469 87.574219 C 142.011719 87.035156 141.746094 86.527344 141.425781 86.042969 Z M 80.320312 125.769531 L 84.128906 118.574219 L 88.707031 125.546875 Z M 92.285156 124.816406 L 92.15625 124.617188 L 90.234375 121.691406 L 132.96875 93.628906 L 135.019531 96.75 Z M 137.808594 94.8125 L 131.9375 85.882812 C 132.671875 85.574219 133.433594 85.433594 134.226562 85.457031 C 135.019531 85.480469 135.769531 85.667969 136.484375 86.019531 C 136.890625 86.214844 137.265625 86.464844 137.605469 86.769531 C 137.890625 87.015625 138.148438 87.292969 138.378906 87.59375 C 138.605469 87.894531 138.800781 88.21875 138.960938 88.558594 C 139.125 88.902344 139.25 89.257812 139.335938 89.625 C 139.421875 89.996094 139.472656 90.367188 139.480469 90.746094 C 139.488281 91.125 139.460938 91.5 139.390625 91.871094 C 139.324219 92.246094 139.214844 92.605469 139.070312 92.957031 C 138.929688 93.304688 138.75 93.636719 138.535156 93.949219 C 138.324219 94.261719 138.078125 94.550781 137.808594 94.8125 Z M 137.808594 94.8125 "/>
</g>
</svg>
