<?xml version="1.0" encoding="UTF-8"?>
<svg xmlns="http://www.w3.org/2000/svg" xmlns:xlink="http://www.w3.org/1999/xlink" width="375pt" height="374.999991pt" viewBox="0 0 375 374.999991" version="1.2">
<g id="surface1">
<path style=" stroke:none;fill-rule:nonzero;fill:rgb(83.139038%,88.238525%,95.689392%);fill-opacity:1;" d="M 141.972656 243.933594 L 141.972656 138.171875 C 141.96875 137.601562 142.023438 137.03125 142.136719 136.46875 C 142.246094 135.90625 142.410156 135.363281 142.632812 134.832031 C 142.851562 134.304688 143.121094 133.800781 143.4375 133.324219 C 143.757812 132.847656 144.121094 132.410156 144.527344 132.003906 C 144.933594 131.601562 145.378906 131.242188 145.855469 130.925781 C 146.332031 130.609375 146.835938 130.34375 147.367188 130.128906 C 147.898438 129.914062 148.445312 129.75 149.007812 129.644531 C 149.574219 129.539062 150.140625 129.488281 150.714844 129.492188 L 141.925781 129.492188 C 141.351562 129.488281 140.785156 129.539062 140.21875 129.644531 C 139.65625 129.75 139.109375 129.914062 138.578125 130.128906 C 138.046875 130.34375 137.542969 130.609375 137.066406 130.925781 C 136.589844 131.242188 136.144531 131.601562 135.738281 132.003906 C 135.332031 132.410156 134.96875 132.847656 134.648438 133.324219 C 134.332031 133.800781 134.0625 134.304688 133.84375 134.832031 C 133.621094 135.363281 133.457031 135.90625 133.347656 136.46875 C 133.234375 137.03125 133.179688 137.601562 133.183594 138.171875 L 133.183594 243.933594 C 133.183594 248.785156 137.070312 252.832031 141.925781 252.832031 L 150.714844 252.832031 C 145.859375 252.832031 141.972656 248.785156 141.972656 243.933594 Z M 141.972656 243.933594 "/>
<path style=" stroke:none;fill-rule:nonzero;fill:rgb(0%,29.019165%,67.83905%);fill-opacity:1;" d="M 221.023438 254.589844 C 226.839844 254.589844 231.621094 249.75 231.621094 243.933594 L 231.621094 225 L 228.105469 225 L 228.105469 243.933594 C 228.101562 244.398438 228.054688 244.859375 227.960938 245.316406 C 227.871094 245.773438 227.734375 246.214844 227.558594 246.648438 C 227.378906 247.078125 227.160156 247.484375 226.902344 247.875 C 226.644531 248.261719 226.351562 248.621094 226.023438 248.953125 C 225.695312 249.28125 225.339844 249.578125 224.953125 249.839844 C 224.570312 250.101562 224.160156 250.320312 223.734375 250.503906 C 223.304688 250.6875 222.863281 250.824219 222.40625 250.921875 C 221.949219 251.015625 221.492188 251.066406 221.023438 251.074219 L 141.921875 251.074219 C 138.046875 251.074219 134.941406 247.808594 134.941406 243.933594 L 134.941406 138.171875 C 134.9375 137.714844 134.984375 137.261719 135.070312 136.8125 C 135.160156 136.363281 135.292969 135.929688 135.46875 135.503906 C 135.644531 135.082031 135.859375 134.683594 136.113281 134.304688 C 136.371094 133.921875 136.660156 133.574219 136.984375 133.25 C 137.308594 132.929688 137.664062 132.640625 138.042969 132.390625 C 138.425781 132.136719 138.828125 131.925781 139.253906 131.753906 C 139.675781 131.582031 140.113281 131.453125 140.5625 131.371094 C 141.011719 131.285156 141.464844 131.246094 141.921875 131.25 L 151.347656 131.25 L 151.347656 135.464844 C 148.710938 136.238281 146.492188 138.808594 146.492188 141.851562 C 146.492188 142.285156 146.535156 142.71875 146.621094 143.144531 C 146.707031 143.570312 146.832031 143.984375 146.996094 144.386719 C 147.164062 144.789062 147.367188 145.167969 147.609375 145.53125 C 147.851562 145.894531 148.125 146.226562 148.433594 146.535156 C 148.738281 146.84375 149.074219 147.117188 149.4375 147.359375 C 149.796875 147.601562 150.179688 147.804688 150.582031 147.96875 C 150.984375 148.136719 151.398438 148.261719 151.824219 148.347656 C 152.25 148.433594 152.679688 148.472656 153.117188 148.472656 C 153.550781 148.472656 153.980469 148.433594 154.40625 148.347656 C 154.832031 148.261719 155.246094 148.136719 155.648438 147.96875 C 156.050781 147.804688 156.433594 147.601562 156.792969 147.359375 C 157.15625 147.117188 157.492188 146.84375 157.796875 146.535156 C 158.105469 146.226562 158.378906 145.894531 158.621094 145.53125 C 158.863281 145.167969 159.066406 144.789062 159.234375 144.386719 C 159.398438 143.984375 159.527344 143.570312 159.609375 143.144531 C 159.695312 142.71875 159.738281 142.285156 159.738281 141.851562 C 159.75 141.125 159.640625 140.414062 159.410156 139.722656 C 159.183594 139.03125 158.847656 138.394531 158.40625 137.816406 C 157.960938 137.234375 157.4375 136.746094 156.832031 136.34375 C 156.222656 135.9375 155.566406 135.648438 154.863281 135.464844 L 154.863281 131.25 L 169.804688 131.25 L 169.804688 135.464844 C 169.09375 135.644531 168.4375 135.9375 167.824219 136.339844 C 167.214844 136.742188 166.6875 137.230469 166.242188 137.808594 C 165.792969 138.390625 165.457031 139.023438 165.222656 139.71875 C 164.988281 140.410156 164.875 141.121094 164.882812 141.851562 C 164.882812 142.289062 164.925781 142.71875 165.007812 143.144531 C 165.09375 143.570312 165.21875 143.984375 165.386719 144.386719 C 165.554688 144.789062 165.757812 145.171875 166 145.535156 C 166.242188 145.894531 166.515625 146.230469 166.824219 146.539062 C 167.132812 146.84375 167.46875 147.121094 167.828125 147.363281 C 168.191406 147.605469 168.574219 147.808594 168.976562 147.972656 C 169.378906 148.140625 169.792969 148.265625 170.21875 148.351562 C 170.644531 148.4375 171.078125 148.476562 171.511719 148.476562 C 171.949219 148.476562 172.378906 148.4375 172.804688 148.351562 C 173.230469 148.265625 173.648438 148.140625 174.046875 147.972656 C 174.449219 147.808594 174.832031 147.605469 175.195312 147.363281 C 175.558594 147.121094 175.890625 146.84375 176.199219 146.539062 C 176.507812 146.230469 176.78125 145.894531 177.023438 145.535156 C 177.265625 145.171875 177.46875 144.789062 177.636719 144.386719 C 177.804688 143.984375 177.929688 143.570312 178.015625 143.144531 C 178.101562 142.71875 178.144531 142.289062 178.144531 141.851562 C 178.128906 141.132812 178.007812 140.433594 177.773438 139.753906 C 177.539062 139.074219 177.203125 138.445312 176.769531 137.875 C 176.335938 137.300781 175.824219 136.804688 175.234375 136.394531 C 174.644531 135.984375 174.007812 135.671875 173.320312 135.464844 L 173.320312 131.25 L 187.96875 131.25 L 187.96875 135.464844 C 185.332031 136.238281 183.121094 138.808594 183.121094 141.851562 C 183.121094 142.285156 183.164062 142.71875 183.25 143.144531 C 183.332031 143.570312 183.457031 143.984375 183.625 144.386719 C 183.792969 144.789062 183.996094 145.167969 184.238281 145.53125 C 184.476562 145.890625 184.753906 146.226562 185.058594 146.535156 C 185.367188 146.839844 185.703125 147.117188 186.0625 147.355469 C 186.425781 147.597656 186.804688 147.800781 187.207031 147.96875 C 187.609375 148.136719 188.023438 148.261719 188.449219 148.347656 C 188.875 148.429688 189.308594 148.472656 189.742188 148.472656 C 190.175781 148.472656 190.605469 148.429688 191.035156 148.347656 C 191.460938 148.261719 191.875 148.136719 192.277344 147.96875 C 192.675781 147.800781 193.058594 147.597656 193.421875 147.355469 C 193.78125 147.117188 194.117188 146.839844 194.421875 146.535156 C 194.730469 146.226562 195.003906 145.890625 195.246094 145.53125 C 195.488281 145.167969 195.691406 144.789062 195.859375 144.386719 C 196.027344 143.984375 196.152344 143.570312 196.234375 143.144531 C 196.320312 142.71875 196.363281 142.285156 196.363281 141.851562 C 196.371094 141.125 196.261719 140.414062 196.035156 139.722656 C 195.804688 139.027344 195.46875 138.394531 195.027344 137.8125 C 194.585938 137.234375 194.058594 136.746094 193.453125 136.34375 C 192.84375 135.9375 192.1875 135.648438 191.484375 135.464844 L 191.484375 131.25 L 206.425781 131.25 L 206.425781 135.464844 C 205.714844 135.644531 205.058594 135.9375 204.449219 136.339844 C 203.835938 136.742188 203.308594 137.230469 202.863281 137.808594 C 202.417969 138.390625 202.078125 139.023438 201.847656 139.71875 C 201.613281 140.410156 201.5 141.121094 201.507812 141.851562 C 201.511719 142.285156 201.554688 142.714844 201.644531 143.140625 C 201.730469 143.5625 201.859375 143.976562 202.027344 144.375 C 202.191406 144.777344 202.398438 145.15625 202.640625 145.515625 C 202.882812 145.875 203.15625 146.207031 203.464844 146.511719 C 203.773438 146.816406 204.109375 147.089844 204.46875 147.332031 C 204.828125 147.570312 205.210938 147.773438 205.609375 147.9375 C 206.011719 148.101562 206.425781 148.226562 206.851562 148.3125 C 207.277344 148.394531 207.703125 148.4375 208.136719 148.4375 C 208.570312 148.4375 209 148.394531 209.425781 148.3125 C 209.851562 148.226562 210.265625 148.101562 210.664062 147.9375 C 211.066406 147.773438 211.449219 147.570312 211.808594 147.332031 C 212.167969 147.089844 212.503906 146.816406 212.8125 146.511719 C 213.117188 146.207031 213.394531 145.875 213.636719 145.515625 C 213.878906 145.15625 214.082031 144.777344 214.25 144.375 C 214.417969 143.976562 214.546875 143.5625 214.632812 143.140625 C 214.722656 142.714844 214.765625 142.285156 214.769531 141.851562 C 214.769531 138.808594 212.578125 136.238281 209.941406 135.464844 L 209.941406 131.25 L 221.023438 131.25 C 224.902344 131.25 228.105469 134.292969 228.105469 138.171875 L 228.105469 207.421875 L 231.621094 207.421875 L 231.621094 138.171875 C 231.621094 132.355469 226.839844 127.734375 221.023438 127.734375 L 209.941406 127.734375 L 209.941406 122.277344 C 209.941406 122.042969 209.894531 121.820312 209.804688 121.605469 C 209.71875 121.390625 209.589844 121.199219 209.425781 121.035156 C 209.261719 120.871094 209.070312 120.742188 208.855469 120.652344 C 208.640625 120.566406 208.414062 120.519531 208.183594 120.519531 C 207.949219 120.519531 207.726562 120.566406 207.507812 120.652344 C 207.292969 120.742188 207.105469 120.871094 206.9375 121.035156 C 206.773438 121.199219 206.648438 121.390625 206.558594 121.605469 C 206.46875 121.820312 206.425781 122.042969 206.425781 122.277344 L 206.425781 127.734375 L 191.484375 127.734375 L 191.484375 122.277344 C 191.484375 122.042969 191.4375 121.820312 191.347656 121.605469 C 191.261719 121.390625 191.132812 121.199219 190.96875 121.035156 C 190.804688 120.871094 190.613281 120.742188 190.398438 120.652344 C 190.183594 120.566406 189.957031 120.519531 189.726562 120.519531 C 189.492188 120.519531 189.269531 120.566406 189.050781 120.652344 C 188.835938 120.742188 188.648438 120.871094 188.480469 121.035156 C 188.316406 121.199219 188.191406 121.390625 188.101562 121.605469 C 188.011719 121.820312 187.96875 122.042969 187.96875 122.277344 L 187.96875 127.734375 L 173.320312 127.734375 L 173.320312 122.277344 C 173.320312 122.042969 173.273438 121.820312 173.183594 121.605469 C 173.097656 121.390625 172.96875 121.199219 172.804688 121.035156 C 172.640625 120.871094 172.449219 120.742188 172.234375 120.652344 C 172.019531 120.566406 171.792969 120.519531 171.5625 120.519531 C 171.328125 120.519531 171.105469 120.566406 170.886719 120.652344 C 170.671875 120.742188 170.484375 120.871094 170.316406 121.035156 C 170.152344 121.199219 170.027344 121.390625 169.9375 121.605469 C 169.847656 121.820312 169.804688 122.042969 169.804688 122.277344 L 169.804688 127.734375 L 154.863281 127.734375 L 154.863281 122.277344 C 154.863281 122.042969 154.816406 121.820312 154.726562 121.605469 C 154.640625 121.390625 154.511719 121.199219 154.347656 121.035156 C 154.183594 120.871094 153.992188 120.742188 153.777344 120.652344 C 153.5625 120.566406 153.335938 120.519531 153.105469 120.519531 C 152.871094 120.519531 152.648438 120.566406 152.429688 120.652344 C 152.214844 120.742188 152.027344 120.871094 151.859375 121.035156 C 151.695312 121.199219 151.570312 121.390625 151.480469 121.605469 C 151.390625 121.820312 151.347656 122.042969 151.347656 122.277344 L 151.347656 127.734375 L 141.921875 127.734375 C 141.234375 127.730469 140.554688 127.792969 139.878906 127.921875 C 139.203125 128.050781 138.546875 128.246094 137.90625 128.507812 C 137.269531 128.769531 136.664062 129.085938 136.09375 129.46875 C 135.519531 129.847656 134.988281 130.28125 134.5 130.765625 C 134.011719 131.25 133.574219 131.777344 133.191406 132.351562 C 132.808594 132.921875 132.484375 133.527344 132.222656 134.160156 C 131.957031 134.796875 131.757812 135.453125 131.625 136.125 C 131.488281 136.800781 131.421875 137.484375 131.425781 138.171875 L 131.425781 243.933594 C 131.425781 249.75 136.105469 254.589844 141.921875 254.589844 Z M 156.238281 141.851562 C 156.238281 142.261719 156.160156 142.660156 156.003906 143.039062 C 155.84375 143.421875 155.621094 143.757812 155.328125 144.050781 C 155.035156 144.339844 154.699219 144.566406 154.320312 144.722656 C 153.9375 144.882812 153.542969 144.960938 153.128906 144.960938 C 152.71875 144.960938 152.320312 144.882812 151.941406 144.722656 C 151.558594 144.566406 151.222656 144.339844 150.933594 144.050781 C 150.640625 143.757812 150.414062 143.421875 150.257812 143.039062 C 150.101562 142.660156 150.019531 142.261719 150.019531 141.851562 C 150.019531 141.4375 150.101562 141.042969 150.257812 140.660156 C 150.414062 140.28125 150.640625 139.945312 150.933594 139.652344 C 151.222656 139.363281 151.558594 139.136719 151.941406 138.980469 C 152.320312 138.820312 152.71875 138.742188 153.128906 138.742188 C 153.542969 138.742188 153.9375 138.820312 154.320312 138.980469 C 154.699219 139.136719 155.035156 139.363281 155.328125 139.652344 C 155.617188 139.945312 155.84375 140.28125 156 140.660156 C 156.160156 141.042969 156.238281 141.4375 156.238281 141.851562 Z M 174.554688 141.851562 C 174.554688 142.261719 174.476562 142.660156 174.320312 143.039062 C 174.160156 143.421875 173.9375 143.757812 173.644531 144.046875 C 173.355469 144.339844 173.019531 144.566406 172.636719 144.722656 C 172.257812 144.878906 171.859375 144.960938 171.449219 144.960938 C 171.035156 144.960938 170.640625 144.878906 170.257812 144.722656 C 169.878906 144.566406 169.542969 144.339844 169.25 144.046875 C 168.957031 143.757812 168.734375 143.421875 168.574219 143.039062 C 168.417969 142.660156 168.339844 142.261719 168.339844 141.851562 C 168.339844 141.4375 168.417969 141.042969 168.574219 140.660156 C 168.734375 140.28125 168.957031 139.945312 169.25 139.652344 C 169.542969 139.359375 169.878906 139.136719 170.257812 138.980469 C 170.640625 138.820312 171.035156 138.742188 171.449219 138.742188 C 171.859375 138.742188 172.257812 138.820312 172.636719 138.980469 C 173.015625 139.136719 173.351562 139.363281 173.644531 139.652344 C 173.9375 139.945312 174.160156 140.28125 174.320312 140.660156 C 174.476562 141.042969 174.554688 141.4375 174.554688 141.851562 Z M 192.875 141.851562 C 192.875 142.261719 192.796875 142.660156 192.636719 143.039062 C 192.480469 143.421875 192.253906 143.757812 191.964844 144.050781 C 191.671875 144.339844 191.335938 144.566406 190.953125 144.722656 C 190.574219 144.882812 190.175781 144.960938 189.765625 144.960938 C 189.351562 144.960938 188.957031 144.882812 188.574219 144.722656 C 188.195312 144.566406 187.859375 144.339844 187.566406 144.050781 C 187.277344 143.757812 187.050781 143.421875 186.894531 143.039062 C 186.734375 142.660156 186.65625 142.261719 186.65625 141.851562 C 186.65625 141.4375 186.734375 141.042969 186.894531 140.660156 C 187.050781 140.28125 187.277344 139.945312 187.566406 139.652344 C 187.859375 139.363281 188.195312 139.136719 188.574219 138.980469 C 188.957031 138.820312 189.351562 138.742188 189.765625 138.742188 C 190.175781 138.742188 190.574219 138.820312 190.953125 138.980469 C 191.335938 139.136719 191.671875 139.363281 191.960938 139.652344 C 192.253906 139.945312 192.476562 140.28125 192.636719 140.660156 C 192.792969 141.042969 192.875 141.4375 192.875 141.851562 Z M 211.191406 141.851562 C 211.191406 142.261719 211.113281 142.660156 210.953125 143.039062 C 210.796875 143.421875 210.570312 143.757812 210.28125 144.046875 C 209.988281 144.339844 209.652344 144.566406 209.273438 144.722656 C 208.890625 144.878906 208.496094 144.960938 208.082031 144.960938 C 207.671875 144.960938 207.273438 144.878906 206.894531 144.722656 C 206.511719 144.566406 206.175781 144.339844 205.882812 144.046875 C 205.59375 143.757812 205.367188 143.421875 205.210938 143.039062 C 205.054688 142.660156 204.972656 142.261719 204.972656 141.851562 C 204.972656 141.4375 205.054688 141.042969 205.210938 140.660156 C 205.367188 140.28125 205.59375 139.945312 205.882812 139.652344 C 206.175781 139.363281 206.511719 139.136719 206.894531 138.980469 C 207.273438 138.820312 207.671875 138.742188 208.082031 138.742188 C 208.496094 138.742188 208.890625 138.820312 209.273438 138.980469 C 209.652344 139.136719 209.988281 139.363281 210.28125 139.652344 C 210.570312 139.945312 210.796875 140.28125 210.953125 140.660156 C 211.113281 141.042969 211.191406 141.4375 211.191406 141.851562 Z M 211.191406 141.851562 "/>
<path style=" stroke:none;fill-rule:nonzero;fill:rgb(0%,29.019165%,67.83905%);fill-opacity:1;" d="M 218.789062 165.234375 L 174.84375 165.234375 C 174.609375 165.234375 174.386719 165.277344 174.167969 165.367188 C 173.953125 165.457031 173.765625 165.585938 173.597656 165.75 C 173.433594 165.914062 173.308594 166.105469 173.21875 166.320312 C 173.128906 166.535156 173.085938 166.757812 173.085938 166.992188 C 173.085938 167.226562 173.128906 167.449219 173.21875 167.664062 C 173.308594 167.878906 173.433594 168.070312 173.597656 168.234375 C 173.765625 168.398438 173.953125 168.527344 174.167969 168.617188 C 174.386719 168.707031 174.609375 168.75 174.84375 168.75 L 218.789062 168.75 C 219.019531 168.75 219.246094 168.707031 219.460938 168.617188 C 219.675781 168.527344 219.867188 168.398438 220.03125 168.234375 C 220.195312 168.070312 220.324219 167.878906 220.410156 167.664062 C 220.5 167.449219 220.546875 167.226562 220.546875 166.992188 C 220.546875 166.757812 220.5 166.535156 220.410156 166.320312 C 220.324219 166.105469 220.195312 165.914062 220.03125 165.75 C 219.867188 165.585938 219.675781 165.457031 219.460938 165.367188 C 219.246094 165.277344 219.019531 165.234375 218.789062 165.234375 Z M 218.789062 165.234375 "/>
<path style=" stroke:none;fill-rule:nonzero;fill:rgb(0%,29.019165%,67.83905%);fill-opacity:1;" d="M 157.09375 166.667969 L 153.1875 170.402344 L 151.601562 168.816406 C 151.4375 168.648438 151.25 168.519531 151.03125 168.425781 C 150.816406 168.332031 150.589844 168.285156 150.355469 168.285156 C 150.121094 168.285156 149.894531 168.328125 149.675781 168.417969 C 149.457031 168.503906 149.265625 168.632812 149.101562 168.800781 C 148.933594 168.964844 148.804688 169.15625 148.71875 169.375 C 148.628906 169.59375 148.582031 169.820312 148.585938 170.054688 C 148.585938 170.289062 148.632812 170.515625 148.726562 170.730469 C 148.816406 170.949219 148.949219 171.136719 149.117188 171.300781 L 151.917969 174.101562 C 152.078125 174.265625 152.265625 174.390625 152.476562 174.480469 C 152.6875 174.566406 152.910156 174.613281 153.140625 174.617188 C 153.371094 174.621094 153.589844 174.578125 153.804688 174.492188 C 154.019531 174.410156 154.207031 174.289062 154.375 174.128906 L 159.523438 169.207031 C 159.691406 169.046875 159.824219 168.859375 159.921875 168.644531 C 160.015625 168.433594 160.066406 168.207031 160.070312 167.972656 C 160.078125 167.742188 160.039062 167.515625 159.953125 167.296875 C 159.871094 167.078125 159.746094 166.882812 159.585938 166.714844 C 159.421875 166.546875 159.234375 166.414062 159.019531 166.320312 C 158.808594 166.226562 158.582031 166.175781 158.347656 166.171875 C 158.113281 166.167969 157.890625 166.207031 157.671875 166.292969 C 157.453125 166.378906 157.261719 166.503906 157.09375 166.667969 Z M 157.09375 166.667969 "/>
<path style=" stroke:none;fill-rule:nonzero;fill:rgb(0%,29.019165%,67.83905%);fill-opacity:1;" d="M 154.335938 158.464844 C 153.550781 158.464844 152.773438 158.542969 152.007812 158.695312 C 151.238281 158.847656 150.492188 159.074219 149.769531 159.375 C 149.046875 159.675781 148.359375 160.042969 147.707031 160.476562 C 147.054688 160.914062 146.453125 161.40625 145.898438 161.960938 C 145.34375 162.515625 144.851562 163.117188 144.414062 163.769531 C 143.980469 164.421875 143.613281 165.109375 143.3125 165.832031 C 143.011719 166.554688 142.785156 167.300781 142.632812 168.070312 C 142.480469 168.835938 142.402344 169.613281 142.402344 170.398438 C 142.402344 171.179688 142.480469 171.957031 142.632812 172.722656 C 142.785156 173.492188 143.011719 174.238281 143.3125 174.960938 C 143.613281 175.6875 143.980469 176.375 144.414062 177.023438 C 144.851562 177.675781 145.34375 178.277344 145.898438 178.832031 C 146.453125 179.386719 147.054688 179.882812 147.707031 180.316406 C 148.359375 180.75 149.046875 181.121094 149.769531 181.417969 C 150.492188 181.71875 151.238281 181.945312 152.007812 182.097656 C 152.773438 182.25 153.550781 182.328125 154.335938 182.328125 C 155.117188 182.328125 155.894531 182.25 156.660156 182.097656 C 157.429688 181.945312 158.175781 181.71875 158.898438 181.417969 C 159.625 181.121094 160.3125 180.75 160.960938 180.316406 C 161.613281 179.882812 162.214844 179.386719 162.769531 178.832031 C 163.324219 178.277344 163.820312 177.675781 164.253906 177.023438 C 164.6875 176.375 165.058594 175.6875 165.355469 174.960938 C 165.65625 174.238281 165.882812 173.492188 166.035156 172.722656 C 166.1875 171.957031 166.265625 171.179688 166.265625 170.398438 C 166.265625 169.613281 166.1875 168.839844 166.03125 168.070312 C 165.878906 167.300781 165.652344 166.558594 165.351562 165.832031 C 165.054688 165.109375 164.683594 164.421875 164.25 163.773438 C 163.816406 163.121094 163.320312 162.519531 162.765625 161.964844 C 162.210938 161.410156 161.609375 160.917969 160.960938 160.480469 C 160.308594 160.046875 159.621094 159.679688 158.898438 159.378906 C 158.175781 159.078125 157.429688 158.851562 156.660156 158.699219 C 155.894531 158.542969 155.117188 158.46875 154.335938 158.464844 Z M 154.335938 178.8125 C 153.78125 178.8125 153.234375 178.757812 152.691406 178.648438 C 152.152344 178.542969 151.625 178.382812 151.113281 178.171875 C 150.605469 177.960938 150.117188 177.699219 149.660156 177.394531 C 149.199219 177.085938 148.773438 176.738281 148.382812 176.347656 C 147.992188 175.957031 147.644531 175.53125 147.335938 175.070312 C 147.03125 174.613281 146.773438 174.128906 146.558594 173.617188 C 146.347656 173.105469 146.1875 172.582031 146.082031 172.039062 C 145.972656 171.496094 145.917969 170.949219 145.917969 170.398438 C 145.917969 169.84375 145.972656 169.296875 146.082031 168.753906 C 146.1875 168.214844 146.347656 167.6875 146.558594 167.175781 C 146.773438 166.667969 147.03125 166.179688 147.335938 165.722656 C 147.644531 165.261719 147.992188 164.835938 148.382812 164.445312 C 148.773438 164.054688 149.199219 163.707031 149.660156 163.398438 C 150.117188 163.09375 150.605469 162.835938 151.113281 162.621094 C 151.625 162.410156 152.152344 162.25 152.691406 162.144531 C 153.234375 162.035156 153.78125 161.980469 154.335938 161.980469 C 154.886719 161.980469 155.433594 162.035156 155.976562 162.144531 C 156.519531 162.25 157.042969 162.410156 157.554688 162.621094 C 158.066406 162.835938 158.550781 163.09375 159.007812 163.398438 C 159.46875 163.707031 159.894531 164.054688 160.285156 164.445312 C 160.675781 164.835938 161.023438 165.261719 161.332031 165.722656 C 161.636719 166.179688 161.898438 166.667969 162.109375 167.175781 C 162.320312 167.6875 162.480469 168.214844 162.585938 168.753906 C 162.695312 169.296875 162.75 169.84375 162.75 170.398438 C 162.75 170.949219 162.695312 171.496094 162.585938 172.039062 C 162.476562 172.578125 162.316406 173.105469 162.105469 173.617188 C 161.894531 174.125 161.636719 174.609375 161.328125 175.070312 C 161.019531 175.527344 160.671875 175.953125 160.28125 176.34375 C 159.890625 176.734375 159.464844 177.085938 159.007812 177.390625 C 158.546875 177.699219 158.0625 177.957031 157.554688 178.167969 C 157.042969 178.382812 156.515625 178.542969 155.976562 178.648438 C 155.433594 178.757812 154.886719 178.8125 154.335938 178.8125 Z M 154.335938 178.8125 "/>
<path style=" stroke:none;fill-rule:nonzero;fill:rgb(0%,29.019165%,67.83905%);fill-opacity:1;" d="M 220.546875 196.289062 C 220.546875 196.054688 220.5 195.832031 220.410156 195.617188 C 220.324219 195.402344 220.195312 195.210938 220.03125 195.046875 C 219.867188 194.882812 219.675781 194.753906 219.460938 194.664062 C 219.246094 194.574219 219.019531 194.53125 218.789062 194.53125 L 174.84375 194.53125 C 174.609375 194.53125 174.386719 194.574219 174.167969 194.664062 C 173.953125 194.753906 173.765625 194.882812 173.597656 195.046875 C 173.433594 195.210938 173.308594 195.402344 173.21875 195.617188 C 173.128906 195.832031 173.085938 196.054688 173.085938 196.289062 C 173.085938 196.523438 173.128906 196.746094 173.21875 196.960938 C 173.308594 197.175781 173.433594 197.367188 173.597656 197.53125 C 173.765625 197.695312 173.953125 197.824219 174.167969 197.914062 C 174.386719 198.003906 174.609375 198.046875 174.84375 198.046875 L 218.789062 198.046875 C 219.019531 198.046875 219.246094 198.003906 219.460938 197.914062 C 219.675781 197.824219 219.867188 197.695312 220.03125 197.53125 C 220.195312 197.367188 220.324219 197.175781 220.410156 196.960938 C 220.5 196.746094 220.546875 196.523438 220.546875 196.289062 Z M 220.546875 196.289062 "/>
<path style=" stroke:none;fill-rule:nonzero;fill:rgb(0%,29.019165%,67.83905%);fill-opacity:1;" d="M 157.09375 195.964844 L 153.1875 199.699219 L 151.601562 198.113281 C 151.4375 197.945312 151.25 197.816406 151.03125 197.722656 C 150.816406 197.628906 150.589844 197.582031 150.355469 197.582031 C 150.121094 197.578125 149.894531 197.625 149.675781 197.714844 C 149.457031 197.800781 149.265625 197.929688 149.101562 198.097656 C 148.933594 198.261719 148.804688 198.453125 148.714844 198.671875 C 148.628906 198.890625 148.582031 199.117188 148.585938 199.351562 C 148.585938 199.585938 148.632812 199.8125 148.726562 200.027344 C 148.816406 200.246094 148.949219 200.433594 149.117188 200.597656 L 151.917969 203.398438 C 152.078125 203.5625 152.265625 203.6875 152.476562 203.777344 C 152.6875 203.863281 152.910156 203.910156 153.140625 203.914062 C 153.371094 203.917969 153.589844 203.875 153.804688 203.789062 C 154.019531 203.707031 154.207031 203.585938 154.375 203.425781 L 159.523438 198.503906 C 159.691406 198.34375 159.824219 198.15625 159.921875 197.941406 C 160.015625 197.730469 160.066406 197.503906 160.070312 197.269531 C 160.078125 197.039062 160.039062 196.8125 159.953125 196.59375 C 159.871094 196.375 159.746094 196.179688 159.585938 196.011719 C 159.421875 195.84375 159.234375 195.710938 159.019531 195.617188 C 158.808594 195.523438 158.582031 195.472656 158.347656 195.46875 C 158.113281 195.464844 157.890625 195.503906 157.671875 195.589844 C 157.453125 195.675781 157.261719 195.800781 157.09375 195.964844 Z M 157.09375 195.964844 "/>
<path style=" stroke:none;fill-rule:nonzero;fill:rgb(0%,29.019165%,67.83905%);fill-opacity:1;" d="M 154.335938 187.761719 C 153.550781 187.761719 152.773438 187.839844 152.007812 187.992188 C 151.238281 188.144531 150.492188 188.371094 149.769531 188.671875 C 149.046875 188.972656 148.359375 189.339844 147.707031 189.773438 C 147.054688 190.210938 146.453125 190.703125 145.898438 191.257812 C 145.34375 191.8125 144.851562 192.414062 144.414062 193.066406 C 143.980469 193.71875 143.613281 194.40625 143.3125 195.128906 C 143.011719 195.851562 142.785156 196.597656 142.632812 197.367188 C 142.480469 198.132812 142.402344 198.910156 142.402344 199.695312 C 142.402344 200.476562 142.480469 201.253906 142.632812 202.019531 C 142.785156 202.789062 143.011719 203.535156 143.3125 204.257812 C 143.613281 204.984375 143.980469 205.671875 144.414062 206.320312 C 144.851562 206.972656 145.34375 207.574219 145.898438 208.128906 C 146.453125 208.683594 147.054688 209.179688 147.707031 209.613281 C 148.359375 210.046875 149.046875 210.417969 149.769531 210.714844 C 150.492188 211.015625 151.238281 211.242188 152.007812 211.394531 C 152.773438 211.546875 153.550781 211.625 154.335938 211.625 C 155.117188 211.625 155.894531 211.546875 156.660156 211.394531 C 157.429688 211.242188 158.175781 211.015625 158.898438 210.714844 C 159.625 210.417969 160.3125 210.046875 160.960938 209.613281 C 161.613281 209.179688 162.214844 208.683594 162.769531 208.128906 C 163.324219 207.574219 163.820312 206.972656 164.253906 206.320312 C 164.6875 205.671875 165.058594 204.984375 165.355469 204.257812 C 165.65625 203.535156 165.882812 202.789062 166.035156 202.019531 C 166.1875 201.253906 166.265625 200.476562 166.265625 199.695312 C 166.265625 198.910156 166.1875 198.136719 166.03125 197.367188 C 165.878906 196.597656 165.652344 195.855469 165.351562 195.128906 C 165.054688 194.40625 164.683594 193.71875 164.25 193.070312 C 163.816406 192.417969 163.320312 191.816406 162.765625 191.261719 C 162.210938 190.707031 161.609375 190.214844 160.960938 189.777344 C 160.308594 189.34375 159.621094 188.976562 158.898438 188.675781 C 158.175781 188.375 157.429688 188.148438 156.660156 187.996094 C 155.894531 187.839844 155.117188 187.765625 154.335938 187.761719 Z M 154.335938 208.109375 C 153.78125 208.109375 153.234375 208.054688 152.691406 207.945312 C 152.152344 207.839844 151.625 207.679688 151.113281 207.46875 C 150.605469 207.257812 150.117188 206.996094 149.660156 206.691406 C 149.199219 206.382812 148.773438 206.035156 148.382812 205.644531 C 147.992188 205.253906 147.644531 204.828125 147.335938 204.367188 C 147.03125 203.910156 146.773438 203.425781 146.558594 202.914062 C 146.347656 202.402344 146.1875 201.878906 146.082031 201.335938 C 145.972656 200.792969 145.917969 200.246094 145.917969 199.695312 C 145.917969 199.140625 145.972656 198.59375 146.082031 198.050781 C 146.1875 197.511719 146.347656 196.984375 146.558594 196.472656 C 146.773438 195.964844 147.03125 195.476562 147.335938 195.019531 C 147.644531 194.558594 147.992188 194.132812 148.382812 193.742188 C 148.773438 193.351562 149.199219 193.003906 149.660156 192.695312 C 150.117188 192.390625 150.605469 192.132812 151.113281 191.917969 C 151.625 191.707031 152.152344 191.546875 152.691406 191.441406 C 153.234375 191.332031 153.78125 191.277344 154.335938 191.277344 C 154.886719 191.277344 155.433594 191.332031 155.976562 191.441406 C 156.519531 191.546875 157.042969 191.707031 157.554688 191.917969 C 158.066406 192.132812 158.550781 192.390625 159.007812 192.695312 C 159.46875 193.003906 159.894531 193.351562 160.285156 193.742188 C 160.675781 194.132812 161.023438 194.558594 161.332031 195.019531 C 161.636719 195.476562 161.898438 195.964844 162.109375 196.472656 C 162.320312 196.984375 162.480469 197.511719 162.585938 198.050781 C 162.695312 198.59375 162.75 199.140625 162.75 199.695312 C 162.75 200.246094 162.695312 200.792969 162.585938 201.335938 C 162.476562 201.875 162.316406 202.402344 162.105469 202.914062 C 161.894531 203.421875 161.636719 203.90625 161.328125 204.367188 C 161.019531 204.824219 160.671875 205.25 160.28125 205.640625 C 159.890625 206.03125 159.464844 206.382812 159.007812 206.6875 C 158.546875 206.996094 158.0625 207.253906 157.554688 207.464844 C 157.042969 207.679688 156.515625 207.839844 155.976562 207.945312 C 155.433594 208.054688 154.886719 208.109375 154.335938 208.109375 Z M 154.335938 208.109375 "/>
<path style=" stroke:none;fill-rule:nonzero;fill:rgb(0%,29.019165%,67.83905%);fill-opacity:1;" d="M 204.460938 225.585938 C 204.460938 225.351562 204.417969 225.128906 204.328125 224.914062 C 204.238281 224.699219 204.109375 224.507812 203.945312 224.34375 C 203.78125 224.179688 203.589844 224.050781 203.375 223.960938 C 203.160156 223.871094 202.9375 223.828125 202.703125 223.828125 L 174.84375 223.828125 C 174.609375 223.828125 174.386719 223.871094 174.167969 223.960938 C 173.953125 224.050781 173.765625 224.179688 173.597656 224.34375 C 173.433594 224.507812 173.308594 224.699219 173.21875 224.914062 C 173.128906 225.128906 173.085938 225.351562 173.085938 225.585938 C 173.085938 225.820312 173.128906 226.042969 173.21875 226.257812 C 173.308594 226.472656 173.433594 226.664062 173.597656 226.828125 C 173.765625 226.992188 173.953125 227.121094 174.167969 227.210938 C 174.386719 227.300781 174.609375 227.34375 174.84375 227.34375 L 202.703125 227.34375 C 202.9375 227.34375 203.160156 227.300781 203.375 227.210938 C 203.589844 227.121094 203.78125 226.992188 203.945312 226.828125 C 204.109375 226.664062 204.238281 226.472656 204.328125 226.257812 C 204.417969 226.042969 204.460938 225.820312 204.460938 225.585938 Z M 204.460938 225.585938 "/>
<path style=" stroke:none;fill-rule:nonzero;fill:rgb(0%,29.019165%,67.83905%);fill-opacity:1;" d="M 157.09375 225.261719 L 153.1875 228.996094 L 151.601562 227.410156 C 151.4375 227.242188 151.25 227.109375 151.03125 227.019531 C 150.816406 226.925781 150.589844 226.878906 150.355469 226.878906 C 150.121094 226.875 149.894531 226.921875 149.675781 227.011719 C 149.457031 227.097656 149.265625 227.226562 149.101562 227.394531 C 148.933594 227.558594 148.804688 227.75 148.714844 227.96875 C 148.628906 228.1875 148.582031 228.414062 148.585938 228.648438 C 148.585938 228.882812 148.632812 229.109375 148.726562 229.324219 C 148.816406 229.542969 148.949219 229.730469 149.117188 229.894531 L 151.917969 232.695312 C 152.078125 232.859375 152.265625 232.984375 152.476562 233.074219 C 152.6875 233.160156 152.910156 233.207031 153.140625 233.210938 C 153.371094 233.214844 153.589844 233.171875 153.804688 233.085938 C 154.019531 233.003906 154.207031 232.882812 154.375 232.722656 L 159.523438 227.800781 C 159.691406 227.640625 159.824219 227.453125 159.921875 227.238281 C 160.015625 227.027344 160.066406 226.800781 160.070312 226.566406 C 160.078125 226.335938 160.039062 226.109375 159.953125 225.890625 C 159.871094 225.671875 159.746094 225.476562 159.585938 225.308594 C 159.421875 225.140625 159.234375 225.007812 159.019531 224.914062 C 158.808594 224.820312 158.582031 224.769531 158.347656 224.765625 C 158.113281 224.761719 157.890625 224.800781 157.671875 224.886719 C 157.453125 224.972656 157.261719 225.097656 157.09375 225.261719 Z M 157.09375 225.261719 "/>
<path style=" stroke:none;fill-rule:nonzero;fill:rgb(0%,29.019165%,67.83905%);fill-opacity:1;" d="M 154.335938 217.058594 C 153.550781 217.058594 152.773438 217.136719 152.007812 217.289062 C 151.238281 217.441406 150.492188 217.667969 149.769531 217.96875 C 149.046875 218.269531 148.359375 218.636719 147.707031 219.070312 C 147.054688 219.507812 146.453125 220 145.898438 220.554688 C 145.34375 221.109375 144.851562 221.710938 144.414062 222.363281 C 143.980469 223.015625 143.613281 223.703125 143.3125 224.425781 C 143.011719 225.148438 142.785156 225.894531 142.632812 226.664062 C 142.480469 227.429688 142.402344 228.207031 142.402344 228.992188 C 142.402344 229.773438 142.480469 230.550781 142.632812 231.316406 C 142.785156 232.085938 143.011719 232.832031 143.3125 233.554688 C 143.613281 234.28125 143.980469 234.96875 144.414062 235.617188 C 144.851562 236.269531 145.34375 236.871094 145.898438 237.425781 C 146.453125 237.980469 147.054688 238.476562 147.707031 238.910156 C 148.359375 239.34375 149.046875 239.714844 149.769531 240.011719 C 150.492188 240.3125 151.238281 240.539062 152.007812 240.691406 C 152.773438 240.84375 153.550781 240.921875 154.335938 240.921875 C 155.117188 240.921875 155.894531 240.84375 156.660156 240.691406 C 157.429688 240.539062 158.175781 240.3125 158.898438 240.011719 C 159.625 239.714844 160.3125 239.34375 160.960938 238.910156 C 161.613281 238.476562 162.214844 237.980469 162.769531 237.425781 C 163.324219 236.871094 163.820312 236.269531 164.253906 235.617188 C 164.6875 234.96875 165.058594 234.28125 165.355469 233.554688 C 165.65625 232.832031 165.882812 232.085938 166.035156 231.316406 C 166.1875 230.550781 166.265625 229.773438 166.265625 228.992188 C 166.265625 228.207031 166.1875 227.433594 166.03125 226.664062 C 165.878906 225.894531 165.652344 225.152344 165.351562 224.425781 C 165.054688 223.703125 164.683594 223.015625 164.25 222.367188 C 163.816406 221.714844 163.320312 221.113281 162.765625 220.558594 C 162.210938 220.003906 161.609375 219.511719 160.960938 219.074219 C 160.308594 218.640625 159.621094 218.273438 158.898438 217.972656 C 158.175781 217.671875 157.429688 217.445312 156.660156 217.292969 C 155.894531 217.136719 155.117188 217.0625 154.335938 217.058594 Z M 154.335938 237.40625 C 153.78125 237.40625 153.234375 237.351562 152.691406 237.242188 C 152.152344 237.136719 151.625 236.976562 151.113281 236.765625 C 150.605469 236.554688 150.117188 236.292969 149.660156 235.988281 C 149.199219 235.679688 148.773438 235.332031 148.382812 234.941406 C 147.992188 234.550781 147.644531 234.125 147.335938 233.664062 C 147.03125 233.207031 146.773438 232.722656 146.558594 232.210938 C 146.347656 231.699219 146.1875 231.175781 146.082031 230.632812 C 145.972656 230.089844 145.917969 229.542969 145.917969 228.992188 C 145.917969 228.4375 145.972656 227.890625 146.082031 227.347656 C 146.1875 226.808594 146.347656 226.28125 146.558594 225.769531 C 146.773438 225.261719 147.03125 224.773438 147.335938 224.316406 C 147.644531 223.855469 147.992188 223.429688 148.382812 223.039062 C 148.773438 222.648438 149.199219 222.300781 149.660156 221.992188 C 150.117188 221.6875 150.605469 221.429688 151.113281 221.214844 C 151.625 221.003906 152.152344 220.84375 152.691406 220.738281 C 153.234375 220.628906 153.78125 220.574219 154.335938 220.574219 C 154.886719 220.574219 155.433594 220.628906 155.976562 220.738281 C 156.519531 220.84375 157.042969 221.003906 157.554688 221.214844 C 158.066406 221.429688 158.550781 221.6875 159.007812 221.992188 C 159.46875 222.300781 159.894531 222.648438 160.285156 223.039062 C 160.675781 223.429688 161.023438 223.855469 161.332031 224.316406 C 161.636719 224.773438 161.898438 225.261719 162.109375 225.769531 C 162.320312 226.28125 162.480469 226.808594 162.585938 227.347656 C 162.695312 227.890625 162.75 228.4375 162.75 228.992188 C 162.75 229.542969 162.695312 230.089844 162.585938 230.632812 C 162.476562 231.171875 162.316406 231.699219 162.105469 232.210938 C 161.894531 232.71875 161.636719 233.203125 161.328125 233.664062 C 161.019531 234.121094 160.671875 234.546875 160.28125 234.9375 C 159.890625 235.328125 159.464844 235.679688 159.007812 235.984375 C 158.546875 236.292969 158.0625 236.550781 157.554688 236.761719 C 157.042969 236.976562 156.515625 237.136719 155.976562 237.242188 C 155.433594 237.351562 154.886719 237.40625 154.335938 237.40625 Z M 154.335938 237.40625 "/>
<path style=" stroke:none;fill-rule:nonzero;fill:rgb(0%,29.019165%,67.83905%);fill-opacity:1;" d="M 174.84375 174.609375 L 198.28125 174.609375 C 198.511719 174.609375 198.738281 174.566406 198.953125 174.476562 C 199.167969 174.386719 199.359375 174.257812 199.523438 174.09375 C 199.6875 173.929688 199.816406 173.738281 199.902344 173.523438 C 199.992188 173.308594 200.039062 173.085938 200.039062 172.851562 C 200.039062 172.617188 199.992188 172.394531 199.902344 172.179688 C 199.816406 171.964844 199.6875 171.773438 199.523438 171.609375 C 199.359375 171.445312 199.167969 171.316406 198.953125 171.226562 C 198.738281 171.136719 198.511719 171.09375 198.28125 171.09375 L 174.84375 171.09375 C 174.609375 171.09375 174.386719 171.136719 174.167969 171.226562 C 173.953125 171.316406 173.765625 171.445312 173.597656 171.609375 C 173.433594 171.773438 173.308594 171.964844 173.21875 172.179688 C 173.128906 172.394531 173.085938 172.617188 173.085938 172.851562 C 173.085938 173.085938 173.128906 173.308594 173.21875 173.523438 C 173.308594 173.738281 173.433594 173.929688 173.597656 174.09375 C 173.765625 174.257812 173.953125 174.386719 174.167969 174.476562 C 174.386719 174.566406 174.609375 174.609375 174.84375 174.609375 Z M 174.84375 174.609375 "/>
<path style=" stroke:none;fill-rule:nonzero;fill:rgb(0%,29.019165%,67.83905%);fill-opacity:1;" d="M 174.84375 203.90625 L 198.28125 203.90625 C 198.511719 203.90625 198.738281 203.863281 198.953125 203.773438 C 199.167969 203.683594 199.359375 203.554688 199.523438 203.390625 C 199.6875 203.226562 199.816406 203.035156 199.902344 202.820312 C 199.992188 202.605469 200.039062 202.382812 200.039062 202.148438 C 200.039062 201.914062 199.992188 201.691406 199.902344 201.476562 C 199.816406 201.261719 199.6875 201.070312 199.523438 200.90625 C 199.359375 200.742188 199.167969 200.613281 198.953125 200.523438 C 198.738281 200.433594 198.511719 200.390625 198.28125 200.390625 L 174.84375 200.390625 C 174.609375 200.390625 174.386719 200.433594 174.167969 200.523438 C 173.953125 200.613281 173.765625 200.742188 173.597656 200.90625 C 173.433594 201.070312 173.308594 201.261719 173.21875 201.476562 C 173.128906 201.691406 173.085938 201.914062 173.085938 202.148438 C 173.085938 202.382812 173.128906 202.605469 173.21875 202.820312 C 173.308594 203.035156 173.433594 203.226562 173.597656 203.390625 C 173.765625 203.554688 173.953125 203.683594 174.167969 203.773438 C 174.386719 203.863281 174.609375 203.90625 174.84375 203.90625 Z M 174.84375 203.90625 "/>
<path style=" stroke:none;fill-rule:nonzero;fill:rgb(0%,29.019165%,67.83905%);fill-opacity:1;" d="M 174.84375 229.6875 C 174.609375 229.6875 174.386719 229.730469 174.167969 229.820312 C 173.953125 229.910156 173.765625 230.039062 173.597656 230.203125 C 173.433594 230.367188 173.308594 230.558594 173.21875 230.773438 C 173.128906 230.988281 173.085938 231.210938 173.085938 231.445312 C 173.085938 231.679688 173.128906 231.902344 173.21875 232.117188 C 173.308594 232.332031 173.433594 232.523438 173.597656 232.6875 C 173.765625 232.851562 173.953125 232.980469 174.167969 233.070312 C 174.386719 233.160156 174.609375 233.203125 174.84375 233.203125 L 198.28125 233.203125 C 198.511719 233.203125 198.738281 233.160156 198.953125 233.070312 C 199.167969 232.980469 199.359375 232.851562 199.523438 232.6875 C 199.6875 232.523438 199.816406 232.332031 199.902344 232.117188 C 199.992188 231.902344 200.039062 231.679688 200.039062 231.445312 C 200.039062 231.210938 199.992188 230.988281 199.902344 230.773438 C 199.816406 230.558594 199.6875 230.367188 199.523438 230.203125 C 199.359375 230.039062 199.167969 229.910156 198.953125 229.820312 C 198.738281 229.730469 198.511719 229.6875 198.28125 229.6875 Z M 174.84375 229.6875 "/>
<path style=" stroke:none;fill-rule:nonzero;fill:rgb(0%,29.019165%,67.83905%);fill-opacity:1;" d="M 141.679688 141.824219 C 141.679688 141.59375 141.632812 141.367188 141.542969 141.152344 C 141.457031 140.9375 141.328125 140.746094 141.164062 140.582031 C 141 140.417969 140.808594 140.292969 140.59375 140.203125 C 140.378906 140.113281 140.152344 140.066406 139.921875 140.066406 C 139.6875 140.066406 139.464844 140.113281 139.246094 140.203125 C 139.03125 140.292969 138.84375 140.417969 138.675781 140.582031 C 138.511719 140.746094 138.386719 140.9375 138.296875 141.152344 C 138.207031 141.367188 138.164062 141.59375 138.164062 141.824219 L 138.164062 143.671875 C 138.164062 143.90625 138.207031 144.128906 138.296875 144.34375 C 138.386719 144.558594 138.511719 144.75 138.675781 144.914062 C 138.84375 145.078125 139.03125 145.207031 139.246094 145.296875 C 139.464844 145.386719 139.6875 145.429688 139.921875 145.429688 C 140.152344 145.429688 140.378906 145.386719 140.59375 145.296875 C 140.808594 145.207031 141 145.078125 141.164062 144.914062 C 141.328125 144.75 141.457031 144.558594 141.542969 144.34375 C 141.632812 144.128906 141.679688 143.90625 141.679688 143.671875 Z M 141.679688 141.824219 "/>
<path style=" stroke:none;fill-rule:nonzero;fill:rgb(0%,29.019165%,67.83905%);fill-opacity:1;" d="M 139.921875 147.476562 C 139.6875 147.476562 139.464844 147.523438 139.246094 147.613281 C 139.03125 147.699219 138.84375 147.828125 138.675781 147.992188 C 138.511719 148.15625 138.386719 148.347656 138.296875 148.5625 C 138.207031 148.777344 138.164062 149.003906 138.164062 149.234375 L 138.164062 166.226562 C 138.164062 166.460938 138.207031 166.683594 138.296875 166.902344 C 138.386719 167.117188 138.511719 167.304688 138.675781 167.472656 C 138.84375 167.636719 139.03125 167.761719 139.246094 167.851562 C 139.464844 167.941406 139.6875 167.984375 139.921875 167.984375 C 140.152344 167.984375 140.378906 167.941406 140.59375 167.851562 C 140.808594 167.761719 141 167.636719 141.164062 167.472656 C 141.328125 167.304688 141.457031 167.117188 141.542969 166.902344 C 141.632812 166.683594 141.679688 166.460938 141.679688 166.226562 L 141.679688 149.234375 C 141.679688 149.003906 141.632812 148.777344 141.542969 148.5625 C 141.457031 148.347656 141.328125 148.15625 141.164062 147.992188 C 141 147.828125 140.808594 147.699219 140.59375 147.613281 C 140.378906 147.523438 140.152344 147.476562 139.921875 147.476562 Z M 139.921875 147.476562 "/>
<path style=" stroke:none;fill-rule:nonzero;fill:rgb(49.798584%,67.83905%,22.349548%);fill-opacity:1;" d="M 262.390625 194.863281 C 262.0625 194.359375 261.6875 193.894531 261.265625 193.46875 C 260.84375 193.039062 260.382812 192.65625 259.886719 192.320312 C 259.390625 191.980469 258.867188 191.695312 258.3125 191.460938 C 257.757812 191.226562 257.1875 191.050781 256.601562 190.925781 C 256.011719 190.804688 255.417969 190.742188 254.816406 190.738281 C 254.21875 190.734375 253.621094 190.789062 253.03125 190.898438 C 252.441406 191.011719 251.871094 191.183594 251.3125 191.40625 C 250.757812 191.632812 250.226562 191.910156 249.726562 192.238281 L 221.5 210.773438 C 221.296875 210.910156 221.125 211.082031 220.992188 211.285156 C 220.859375 211.492188 220.773438 211.714844 220.730469 211.957031 C 220.691406 212.199219 220.703125 212.4375 220.761719 212.675781 C 220.824219 212.914062 220.929688 213.128906 221.078125 213.324219 C 221.214844 213.5 221.378906 213.640625 221.566406 213.753906 C 221.757812 213.867188 221.960938 213.941406 222.179688 213.976562 C 222.398438 214.015625 222.613281 214.007812 222.828125 213.964844 C 223.046875 213.917969 223.246094 213.832031 223.429688 213.710938 L 249.570312 196.546875 L 251.695312 199.785156 L 207.410156 228.867188 L 205.285156 225.628906 L 213.605469 220.167969 C 213.800781 220.039062 213.960938 219.878906 214.09375 219.6875 C 214.222656 219.492188 214.3125 219.285156 214.359375 219.054688 C 214.410156 218.828125 214.410156 218.597656 214.367188 218.371094 C 214.324219 218.140625 214.238281 217.929688 214.109375 217.734375 C 213.980469 217.539062 213.820312 217.375 213.628906 217.246094 C 213.433594 217.113281 213.226562 217.023438 212.996094 216.976562 C 212.769531 216.929688 212.539062 216.929688 212.308594 216.972656 C 212.082031 217.015625 211.871094 217.101562 211.675781 217.230469 L 201.894531 223.652344 C 201.875 223.664062 201.859375 223.679688 201.839844 223.691406 C 201.796875 223.722656 201.753906 223.753906 201.710938 223.789062 C 201.667969 223.828125 201.636719 223.855469 201.601562 223.890625 C 201.582031 223.914062 201.558594 223.933594 201.539062 223.957031 C 201.519531 223.980469 201.5 223.992188 201.484375 224.015625 C 201.46875 224.039062 201.460938 224.054688 201.445312 224.074219 C 201.414062 224.113281 201.390625 224.152344 201.363281 224.195312 C 201.347656 224.222656 201.324219 224.253906 201.308594 224.285156 C 201.304688 224.289062 201.300781 224.296875 201.296875 224.304688 L 194.554688 237.042969 C 194.484375 237.175781 194.429688 237.316406 194.398438 237.464844 C 194.363281 237.613281 194.347656 237.761719 194.351562 237.914062 C 194.355469 238.066406 194.378906 238.214844 194.421875 238.359375 C 194.464844 238.503906 194.523438 238.640625 194.601562 238.769531 C 194.679688 238.902344 194.773438 239.019531 194.882812 239.125 C 194.992188 239.230469 195.109375 239.320312 195.242188 239.394531 C 195.375 239.46875 195.515625 239.527344 195.660156 239.566406 C 195.808594 239.601562 195.957031 239.621094 196.105469 239.621094 L 196.152344 239.621094 L 211.007812 239.234375 C 211.046875 239.234375 211.082031 239.226562 211.117188 239.222656 C 211.152344 239.21875 211.191406 239.21875 211.230469 239.210938 C 211.277344 239.207031 211.324219 239.195312 211.367188 239.183594 C 211.402344 239.175781 211.433594 239.167969 211.46875 239.160156 C 211.546875 239.136719 211.621094 239.109375 211.691406 239.074219 C 211.710938 239.066406 211.726562 239.054688 211.746094 239.046875 C 211.800781 239.019531 211.855469 238.988281 211.910156 238.953125 C 211.917969 238.949219 211.921875 238.949219 211.929688 238.945312 L 259.769531 207.527344 C 260.269531 207.195312 260.734375 206.820312 261.164062 206.398438 C 261.589844 205.976562 261.972656 205.519531 262.308594 205.023438 C 262.648438 204.523438 262.933594 204 263.164062 203.445312 C 263.398438 202.894531 263.578125 202.324219 263.699219 201.734375 C 263.820312 201.148438 263.882812 200.554688 263.890625 199.953125 C 263.894531 199.355469 263.839844 198.757812 263.726562 198.167969 C 263.617188 197.578125 263.445312 197.007812 263.222656 196.449219 C 262.996094 195.894531 262.71875 195.363281 262.390625 194.863281 Z M 199.070312 236.027344 L 203.011719 228.578125 L 207.757812 235.800781 Z M 211.46875 235.042969 L 211.332031 234.835938 L 209.339844 231.804688 L 253.625 202.722656 L 255.75 205.960938 Z M 258.640625 203.953125 L 252.558594 194.695312 C 253.316406 194.378906 254.105469 194.230469 254.929688 194.257812 C 255.75 194.28125 256.53125 194.476562 257.269531 194.839844 C 257.691406 195.042969 258.078125 195.300781 258.433594 195.613281 C 258.726562 195.871094 258.996094 196.15625 259.230469 196.46875 C 259.46875 196.78125 259.671875 197.117188 259.835938 197.472656 C 260.003906 197.828125 260.132812 198.195312 260.222656 198.578125 C 260.3125 198.957031 260.363281 199.34375 260.375 199.738281 C 260.382812 200.128906 260.351562 200.519531 260.28125 200.90625 C 260.210938 201.289062 260.101562 201.664062 259.949219 202.027344 C 259.800781 202.390625 259.617188 202.734375 259.394531 203.058594 C 259.175781 203.382812 258.921875 203.679688 258.640625 203.953125 Z M 258.640625 203.953125 "/>
</g>
</svg>
