<svg id="Capa_1" enable-background="new 0 0 512 512" height="512" viewBox="0 0 512 512" width="512" xmlns="http://www.w3.org/2000/svg" xmlns:xlink="http://www.w3.org/1999/xlink"><linearGradient id="SVGID_1_" gradientUnits="userSpaceOnUse" x1="256" x2="256" y1="598.193" y2="61.049"><stop offset="0" stop-color="#d2deff" stop-opacity="0"/><stop offset="1" stop-color="#b7c5ff"/></linearGradient><g><path d="m465.257 164.114c-14.861-17.312-24.645-38.356-29.219-60.708-3.878-18.954-12.095-35.401-24.961-48.267-58.773-58.773-192.264-20.572-298.161 85.325s-144.097 239.387-85.324 298.16c27.937 27.937 72.756 33.955 123.469 21.212 29.453-7.401 60.532-4.287 88.29 8.03 23.202 10.295 48.799 16.173 75.724 16.566 105.676 1.543 193.748-82.552 196.839-188.195 1.479-50.505-16.354-96.822-46.657-132.123z" fill="url(#SVGID_1_)"/><g><g><circle cx="189.559" cy="170.272" fill="#00c" opacity=".1" r="34.972"/><g><g><path d="m447.675 444.07-30.6-244.14c-.57-4.51-4.4-7.9-8.95-7.9h-34.978v-52.074c0-36.479-29.677-66.156-66.155-66.156s-66.156 29.678-66.156 66.156v52.074h-34.98c-4.55 0-8.38 3.39-8.94 7.9l-2.09 16.67-.549 4.383c-5.841-2.979-12.443-4.671-19.438-4.671-23.677 0-42.939 19.263-42.939 42.939v32.307h-19.045c-4.978 0-9.013 4.035-9.013 9.013v144.614c0 4.978 4.035 9.013 9.013 9.013h62.386.006 263.49c5.418.002 9.618-4.748 8.938-10.128zm-196.84-304.114c0-30.965 25.191-56.156 56.156-56.156 30.964 0 56.155 25.191 56.155 56.156v52.074h-112.311zm-108.937 119.296c0-18.163 14.776-32.939 32.939-32.939 6.677 0 12.893 2.002 18.088 5.431l-7.5 59.816h-43.528v-32.308z" fill="#00c" opacity=".1"/><path d="m438.735 433.2h-263.49c-5.42 0-9.62-4.75-8.94-10.13l28.52-227.47 2.09-16.67c.56-4.51 4.39-7.9 8.94-7.9h202.27c4.55 0 8.38 3.39 8.95 7.9l30.6 244.14c.68 5.38-3.52 10.13-8.94 10.13z" fill="#fff"/><path d="m440.715 367.52h-267.45l5.28-42.09h256.89z" fill="#6583fe"/><g><path d="m383.335 406.908h-132.5c-2.762 0-5-2.239-5-5s2.238-5 5-5h132.5c2.762 0 5 2.239 5 5s-2.238 5-5 5z" fill="#00c"/></g><g fill="#fff"><g><circle cx="245.835" cy="205.75" r="11.266"/><circle cx="368.146" cy="205.75" r="11.266"/></g><path d="m103.84 279.573v144.614c0 4.978 4.035 9.013 9.013 9.013h123.968c4.978 0 9.013-4.035 9.013-9.013v-144.614c0-4.978-4.035-9.013-9.013-9.013h-123.967c-4.978-.001-9.014 4.035-9.014 9.013z"/><path d="m365.664 257.999-21.713 21.713c-1.953 1.953-5.118 1.953-7.071 0l-30.835-30.835c-1.098-1.098-1.623-2.643-1.422-4.182l2.505-19.208c.293-2.249 2.063-4.018 4.311-4.311l19.208-2.505c1.539-.201 3.085.325 4.182 1.423l30.835 30.835c1.953 1.952 1.953 5.118 0 7.07z"/></g><path d="m212.277 342.8h-74.879c-2.761 0-5-2.239-5-5v-25c0-2.761 2.239-5 5-5h74.879c2.761 0 5 2.239 5 5v25c0 2.761-2.239 5-5 5z" fill="#6583fe"/><g><path d="m196.088 330.3h-42.5c-2.762 0-5-2.239-5-5s2.238-5 5-5h42.5c2.762 0 5 2.239 5 5s-2.238 5-5 5z" fill="#00c"/></g></g><g><circle cx="189.559" cy="149.272" fill="#6583fe" r="34.972"/><g fill="#00c"><path d="m452.639 422.443-30.607-244.14c-.877-6.995-6.854-12.271-13.904-12.271h-34.981v-47.077c0-36.479-29.677-66.156-66.156-66.156s-66.156 29.678-66.156 66.156v47.077h-15.001c2.367-5.102 3.698-10.778 3.698-16.762 0-22.04-17.931-39.972-39.972-39.972s-39.972 17.932-39.972 39.972 17.931 39.972 39.972 39.972c.343 0 .681-.017 1.022-.026l-1.087 8.674c-4.576-1.667-9.511-2.578-14.656-2.578-23.677 0-42.939 19.263-42.939 42.939v27.308h-19.045c-7.727 0-14.013 6.286-14.013 14.013v144.614c0 7.727 6.286 14.013 14.013 14.013h325.881c4.018 0 7.849-1.729 10.507-4.741s3.896-7.027 3.396-11.015zm-201.804-303.487c0-30.965 25.191-56.156 56.156-56.156 30.964 0 56.156 25.191 56.156 56.156v47.077h-36.307v-4.899c0-9.007-7.327-16.334-16.333-16.334s-16.333 7.327-16.333 16.334v4.899h-43.339zm66.005 47.077h-12.667v-4.899c0-3.492 2.841-6.334 6.333-6.334s6.333 2.842 6.333 6.334v4.899zm-157.252-16.762c0-16.526 13.445-29.972 29.972-29.972 16.526 0 29.972 13.445 29.972 29.972s-13.445 29.972-29.972 29.972-29.972-13.445-29.972-29.972zm-17.69 88.981c0-18.163 14.776-32.939 32.939-32.939 4.759 0 9.28 1.023 13.369 2.846l-4.037 32.205c-.344 2.74 1.599 5.239 4.339 5.583 2.739.341 5.24-1.6 5.583-4.339l3.413-27.222c6.32 6.006 10.273 14.48 10.273 23.867v27.308h-65.879zm299.846 188.59c-.448.507-1.434 1.357-3.009 1.357h-188.493c.381-1.272.593-2.618.593-4.013v-110.613c0-2.762-2.239-5-5-5s-5 2.238-5 5v110.613c0 2.213-1.8 4.013-4.013 4.013h-123.968c-2.213 0-4.013-1.8-4.013-4.013v-144.614c0-2.213 1.8-4.013 4.013-4.013h19.045v13.163c0 2.762 2.239 5 5 5s5-2.238 5-5v-13.162h65.879v13.163c0 2.762 2.239 5 5 5s5-2.238 5-5v-13.163h19.045c2.213 0 4.013 1.8 4.013 4.013 0 2.762 2.239 5 5 5s5-2.238 5-5c0-7.727-6.286-14.013-14.013-14.013h-19.045v-27.308c0-14.739-7.467-27.765-18.814-35.5l1.899-15.146c7.156-2.114 13.484-6.173 18.36-11.572h21.613v14.244c-6.529 2.115-11.266 8.247-11.266 15.471 0 8.97 7.297 16.267 16.266 16.267s16.267-7.297 16.267-16.267c0-7.224-4.738-13.356-11.267-15.471v-14.244h66.005v39.396l-6.047.789c-4.491.585-8.037 4.131-8.624 8.623l-2.505 19.208c-.398 3.057.665 6.184 2.845 8.363l30.835 30.837c1.95 1.949 4.51 2.923 7.071 2.923s5.122-.975 7.071-2.924l21.713-21.714c1.889-1.889 2.929-4.399 2.929-7.07s-1.04-5.183-2.929-7.07l-30.835-30.836c-2.181-2.18-5.306-3.246-8.365-2.845l-3.16.412v-38.092h36.306v14.244c-6.529 2.115-11.267 8.247-11.267 15.471 0 8.97 7.297 16.267 16.267 16.267 8.969 0 16.267-7.297 16.267-16.267 0-7.224-4.738-13.356-11.267-15.471v-14.244h34.981c2.019 0 3.731 1.511 3.982 3.515l30.606 244.14c.198 1.562-.524 2.645-.971 3.153zm-200.688-225.136c.606 2.079 2.504 3.607 4.779 3.607 2.274 0 4.173-1.528 4.779-3.607.926 1.093 1.488 2.503 1.488 4.044 0 3.455-2.811 6.267-6.267 6.267-3.455 0-6.266-2.812-6.266-6.267 0-1.542.561-2.952 1.487-4.044zm80.784 33.761c2.761 0 5-2.238 5-5v-6.258l4.453-.581 30.84 30.831-.004.004-.001.001-21.713 21.714-30.835-30.836 2.505-19.208 4.755-.62v4.953c0 2.762 2.239 5 5 5zm41.528-33.762c.606 2.079 2.504 3.607 4.779 3.607s4.173-1.528 4.779-3.607c.926 1.093 1.488 2.503 1.488 4.044 0 3.455-2.811 6.267-6.267 6.267s-6.267-2.812-6.267-6.267c0-1.541.561-2.951 1.488-4.044z"/><path d="m189.56 166.017c-2.761 0-5-2.238-5-5v-23.489c0-2.762 2.239-5 5-5s5 2.238 5 5v23.489c0 2.761-2.239 5-5 5z"/><path d="m201.304 154.271h-23.489c-2.761 0-5-2.238-5-5s2.239-5 5-5h23.489c2.761 0 5 2.238 5 5s-2.239 5-5 5z"/></g></g></g></g><path d="m73.253 267.917c-1.28 0-2.559-.488-3.536-1.465-1.953-1.952-1.953-5.118 0-7.07l10-10c1.953-1.953 5.118-1.953 7.071 0 1.953 1.952 1.953 5.118 0 7.07l-10 10c-.976.977-2.255 1.465-3.535 1.465z" fill="#6583fe"/><path d="m191.955 78.912c-1.28 0-2.559-.488-3.536-1.465-1.953-1.952-1.953-5.118 0-7.07l10-10c1.953-1.953 5.118-1.953 7.071 0 1.953 1.952 1.953 5.118 0 7.07l-10 10c-.976.977-2.256 1.465-3.535 1.465z" fill="#6583fe"/><g><path d="m426.795 139.057c-1.28 0-2.559-.488-3.536-1.465l-6.464-6.464-6.464 6.464c-1.953 1.953-5.118 1.953-7.071 0-1.953-1.952-1.953-5.118 0-7.07l10-10c1.953-1.953 5.118-1.953 7.071 0l10 10c1.953 1.952 1.953 5.118 0 7.07-.977.976-2.256 1.465-3.536 1.465z" fill="#6583fe"/></g><g><path d="m448.747 176.017c-1.28 0-2.559-.488-3.536-1.465-1.953-1.952-1.953-5.118 0-7.07l10-10c1.953-1.953 5.118-1.953 7.071 0 1.953 1.952 1.953 5.118 0 7.07l-10 10c-.976.976-2.255 1.465-3.535 1.465z" fill="#6583fe"/><g><path d="m73.253 401.721c-1.28 0-2.559-.488-3.536-1.465l-6.464-6.464-6.464 6.464c-1.953 1.953-5.118 1.953-7.071 0-1.953-1.952-1.953-5.118 0-7.07l10-10c1.953-1.953 5.118-1.953 7.071 0l10 10c1.953 1.952 1.953 5.118 0 7.07-.977.976-2.256 1.465-3.536 1.465z" fill="#6583fe"/></g></g></g></g></svg>