<svg id="Capa_1" enable-background="new 0 0 512 512" height="512" viewBox="0 0 512 512" width="512" xmlns="http://www.w3.org/2000/svg"><g><g><path d="m497.55 465.53v33c0 3.3-2.67 5.97-5.97 5.97h-471.16c-3.3 0-5.97-2.67-5.97-5.97v-33c0-3.3 2.67-5.97 5.97-5.97h471.16c3.3 0 5.97 2.67 5.97 5.97z" fill="#b6c4cf"/><path d="m141.02 459.56h184.25v44.94h-184.25z" fill="#9facba"/><path d="m491.577 459.558h-22.856c3.299 0 5.974 2.674 5.974 5.974v32.995c0 3.299-2.674 5.974-5.974 5.974h22.856c3.299 0 5.974-2.675 5.974-5.974v-32.995c0-3.299-2.675-5.974-5.974-5.974z" fill="#9facba"/><path d="m35.218 283.255h441.563v176.303h-441.563z" fill="#b6c4cf"/><path d="m453.926 283.255h22.856v176.303h-22.856z" fill="#9facba"/><path d="m49.448 320.584h-.982c-18.787 0-34.017-15.23-34.017-34.017v-32.664c0-4.406 3.571-7.977 7.977-7.977h61.038v40.641c0 18.787-15.229 34.017-34.016 34.017z" fill="#60b7ff"/><path d="m60.608 245.926v40.641c0 14.959-9.661 27.654-23.08 32.209 3.434 1.166 7.109 1.807 10.937 1.807h.982c18.787 0 34.017-15.23 34.017-34.017v-40.641h-22.856z" fill="#26a6fe"/><path d="m118.463 320.584h-.982c-18.787 0-34.017-15.23-34.017-34.017v-40.641h69.015v40.641c.001 18.787-15.229 34.017-34.016 34.017z" fill="#f5fcff"/><path d="m129.624 245.926v40.641c0 14.959-9.661 27.654-23.08 32.209 3.434 1.166 7.109 1.807 10.937 1.807h.982c18.787 0 34.017-15.23 34.017-34.017v-40.641h-22.856z" fill="#ddf4fe"/><path d="m187.478 320.584h-.982c-18.787 0-34.017-15.23-34.017-34.017v-40.641h69.015v40.641c.001 18.787-15.229 34.017-34.016 34.017z" fill="#60b7ff"/><path d="m198.639 245.926v40.641c0 14.959-9.661 27.654-23.08 32.209 3.434 1.166 7.109 1.807 10.937 1.807h.982c18.787 0 34.017-15.23 34.017-34.017v-40.641h-22.856z" fill="#26a6fe"/><path d="m256.494 320.584h-.982c-18.787 0-34.017-15.23-34.017-34.017v-40.641h69.015v40.641c.001 18.787-15.229 34.017-34.016 34.017z" fill="#f5fcff"/><path d="m267.655 245.926v40.641c0 14.959-9.661 27.654-23.08 32.209 3.434 1.166 7.109 1.807 10.937 1.807h.982c18.787 0 34.017-15.23 34.017-34.017v-40.641h-22.856z" fill="#ddf4fe"/><path d="m325.503 320.584h-.982c-18.787 0-34.017-15.23-34.017-34.017v-40.641h69.015v40.641c.001 18.787-15.229 34.017-34.016 34.017z" fill="#60b7ff"/><path d="m336.664 245.926v40.641c0 14.959-9.66 27.654-23.08 32.209 3.434 1.166 7.109 1.807 10.937 1.807h.982c18.787 0 34.017-15.23 34.017-34.017v-40.641h-22.856z" fill="#26a6fe"/><path d="m394.519 320.584h-.982c-18.787 0-34.017-15.23-34.017-34.017v-40.641h69.015v40.641c.001 18.787-15.229 34.017-34.016 34.017z" fill="#f5fcff"/><path d="m405.679 245.926v40.641c0 14.959-9.66 27.654-23.08 32.209 3.434 1.166 7.109 1.807 10.937 1.807h.982c18.787 0 34.017-15.23 34.017-34.017v-40.641h-22.856z" fill="#ddf4fe"/><path d="m463.534 320.584h-.982c-18.787 0-34.017-15.23-34.017-34.017v-40.641h61.038c4.406 0 7.977 3.571 7.977 7.977v32.664c.001 18.787-15.229 34.017-34.016 34.017z" fill="#60b7ff"/><path d="m489.574 245.926h-22.856c4.406 0 7.977 3.571 7.977 7.977v32.664c0 14.959-9.66 27.654-23.08 32.209 3.434 1.166 7.109 1.807 10.937 1.807h.982c18.787 0 34.017-15.23 34.017-34.017v-32.664c0-4.405-3.572-7.976-7.977-7.976z" fill="#26a6fe"/><path d="m35.218 162.706h441.563v83.22h-441.563z" fill="#c8effe"/><path d="m453.926 162.706h22.856v83.22h-22.856z" fill="#99e6fc"/><path d="m497.55 99.26v57.47c0 3.3-2.67 5.98-5.97 5.98h-471.16c-3.3 0-5.97-2.68-5.97-5.98v-57.47c0-3.3 2.67-5.98 5.97-5.98h471.16c3.3 0 5.97 2.68 5.97 5.98z" fill="#60b7ff"/><path d="m225.66 93.28v37.76h-64.74c-6.88 0-12.46-5.58-12.46-12.46v-25.3z" fill="#26a6fe"/><path d="m491.577 93.282h-22.856c3.299 0 5.974 2.675 5.974 5.974v57.476c0 3.299-2.674 5.974-5.974 5.974h22.856c3.299 0 5.974-2.674 5.974-5.974v-57.476c0-3.299-2.675-5.974-5.974-5.974z" fill="#26a6fe"/><path d="m35.22 356.44h441.56v103.12h-441.56z" fill="#c8effe"/><path d="m141.02 356.44h184.25v103.12h-184.25z" fill="#99e6fc"/><path d="m453.926 356.441h22.856v103.117h-22.856z" fill="#99e6fc"/><path d="m163.876 356.441h184.247v148.059h-184.247z" fill="#60b7ff"/><path d="m325.268 356.441h22.856v148.059h-22.856z" fill="#26a6fe"/><path d="m329.227 131.037h-146.454c-6.882 0-12.461-5.579-12.461-12.461v-98.615c0-6.882 5.579-12.461 12.461-12.461h146.454c6.882 0 12.461 5.579 12.461 12.461v98.616c0 6.881-5.579 12.46-12.461 12.46z" fill="#aca6d6"/><path d="m329.227 7.5h-22.856c6.882 0 12.461 5.579 12.461 12.461v98.615c0 6.882-5.579 12.461-12.461 12.461h22.856c6.882 0 12.461-5.579 12.461-12.461v-98.615c0-6.882-5.579-12.461-12.461-12.461z" fill="#978ecb"/><path d="m293.197 99.652h-39.813c-3.149 0-5.933-2.045-6.875-5.049l-12.366-39.434h59.053c3.979 0 7.205 3.226 7.205 7.205v30.073c.001 3.979-3.225 7.205-7.204 7.205z" fill="#f5fcff"/><path d="m293.197 55.169h-22.856c3.979 0 7.205 3.226 7.205 7.205v30.073c0 3.979-3.226 7.205-7.205 7.205h22.856c3.979 0 7.205-3.226 7.205-7.205v-30.073c0-3.979-3.226-7.205-7.205-7.205z" fill="#ddf4fe"/></g><g><path d="m505.051 286.567v-32.664c0-8.534-6.942-15.478-15.477-15.478h-5.293v-68.215h7.299c7.427 0 13.47-6.047 13.47-13.48v-57.47c0-7.433-6.043-13.48-13.47-13.48h-67.66v-29.77c0-11.546-9.398-20.94-20.95-20.94h-53.782v-15.109c0-11.006-8.955-19.961-19.961-19.961h-146.454c-11.007 0-19.961 8.955-19.961 19.961v15.109h-53.782c-11.552 0-20.95 9.394-20.95 20.94v29.77h-67.66c-7.427 0-13.47 6.047-13.47 13.48v57.47c0 7.433 6.043 13.48 13.47 13.48h7.299v68.216h-5.293c-8.534 0-15.477 6.943-15.477 15.478v32.664c0 15.338 8.367 28.75 20.771 35.938l-.001 129.554h-7.299c-7.427 0-13.47 6.042-13.47 13.47v33c0 7.427 6.043 13.47 13.47 13.47h471.16c7.427 0 13.47-6.043 13.47-13.47v-33c0-7.427-6.043-13.47-13.47-13.47h-7.299v-95.619c0-.007-.001-.013-.001-.019v-33.917c12.404-7.188 20.771-20.6 20.771-35.938zm-15-32.664v32.664c0 14.621-11.896 26.517-26.517 26.517-14.361.637-27.564-11.601-27.499-26.517v-33.141h53.539c.263 0 .477.214.477.477zm-69.016 32.664c.071 14.49-12.507 27.017-27.498 26.517-14.621 0-26.517-11.896-26.517-26.517v-33.141h54.015zm-69.014 0c.071 14.491-12.507 27.017-27.499 26.517-14.582 0-26.451-11.833-26.514-26.401 0-.039.003-.077.003-.115v-33.141h54.01zm-138.026 0c.071 14.491-12.507 27.017-27.499 26.517-14.621 0-26.517-11.896-26.517-26.517v-33.141h54.016zm-69.016 0c.071 14.49-12.507 27.017-27.498 26.517-14.621 0-26.517-11.896-26.517-26.517v-33.141h54.015zm84.016-33.141h54.01v33.141c.088 14.476-12.506 27.024-27.493 26.517-14.621 0-26.517-11.896-26.517-26.517zm179.925-197.416v29.77h-21.96v-35.71h16.01c3.281 0 5.95 2.664 5.95 5.94zm-36.96-5.94v35.71h-22.772v-35.71zm-209.148 0v35.71h-22.772v-35.71zm-59.732 5.94c0-3.275 2.669-5.94 5.95-5.94h16.01v35.71h-21.96zm-81.13 44.77h140.862v17.797c0 11.006 8.954 19.961 19.961 19.961h95.678c4.143 0 7.5-3.358 7.5-7.5s-3.357-7.5-7.5-7.5h-95.678c-2.735 0-4.961-2.226-4.961-4.961v-98.616c0-2.735 2.226-4.961 4.961-4.961h146.453c2.735 0 4.961 2.226 4.961 4.961v98.616c0 2.735-2.226 4.961-4.961 4.961h-15.607c-4.143 0-7.5 3.358-7.5 7.5s3.357 7.5 7.5 7.5h15.607c11.007 0 19.961-8.955 19.961-19.961v-17.797h140.863v54.43h-468.1zm20.769 69.43h426.562v68.216h-426.562zm-20.77 83.693c0-.263.214-.478.477-.478h12.793 40.746v33.141c.071 14.49-12.507 27.017-27.499 26.517-14.621 0-26.517-11.896-26.517-26.517zm134.427 110.038v88.119h-50.079v-88.119zm-65.079 88.119h-48.577v-88.119h48.577zm-69.347 15h134.426v29.94h-134.426zm149.426-103.119h77.124v133.059h-77.124zm92.124 133.059v-133.059h77.124v133.059zm205.78-133.059v88.119h-48.577v-60.257c0-4.142-3.357-7.5-7.5-7.5s-7.5 3.358-7.5 7.5v60.257h-50.079v-88.119zm20.77 133.059h-134.426v-29.94h134.426zm-20.77-148.059h-426.56v-21.265c14.284 2.549 32.782-4.858 40.745-17.352 7.514 10.726 19.956 17.759 34.017 17.759 13.428.494 27.606-6.946 34.998-17.758 7.514 10.726 19.956 17.758 34.017 17.758 13.428.494 27.607-6.946 34.999-17.758 7.514 10.726 19.956 17.758 34.017 17.758 13.427.494 27.604-6.944 34.996-17.754 7.514 10.723 19.955 17.754 34.014 17.754 13.428.494 27.607-6.946 34.999-17.758 7.514 10.726 19.956 17.758 34.017 17.758 13.429.494 27.607-6.947 34.998-17.759 8.639 12.223 24.179 19.78 40.745 17.352v21.265z"/><path d="m169.457 211.104h259.078c4.143 0 7.5-3.358 7.5-7.5s-3.357-7.5-7.5-7.5h-259.078c-4.143 0-7.5 3.358-7.5 7.5s3.357 7.5 7.5 7.5z"/><path d="m134.366 211.104c4.143 0 7.5-3.358 7.5-7.5s-3.357-7.5-7.5-7.5h-50.901c-4.143 0-7.5 3.358-7.5 7.5s3.357 7.5 7.5 7.5z"/><path d="m290.02 402.383c-4.145 0-7.504 3.36-7.504 7.504 0 4.145 3.36 7.505 7.504 7.505s7.504-3.36 7.504-7.505c0-4.144-3.36-7.504-7.504-7.504z"/><path d="m307.902 92.447v-30.073c0-8.108-6.597-14.705-14.705-14.705h-53.664l-2.169-6.447c-2.679-7.963-10.124-13.314-18.526-13.314h-13.755c-4.143 0-7.5 3.358-7.5 7.5s3.357 7.5 7.5 7.5h13.755c1.954 0 3.687 1.245 4.31 3.097l16.206 50.843c1.934 6.163 7.572 10.304 14.031 10.304h39.812c8.109 0 14.705-6.597 14.705-14.705zm-15-.295h-39.301l-9.246-29.483h48.547z"/></g></g></svg>