<svg id="Capa_1" enable-background="new 0 0 512 512" height="512" viewBox="0 0 512 512" width="512" xmlns="http://www.w3.org/2000/svg" xmlns:xlink="http://www.w3.org/1999/xlink"><linearGradient id="SVGID_1_" gradientTransform="matrix(1 0 0 -1 0 513.276)" gradientUnits="userSpaceOnUse" x1="285.786" x2="215.289" y1="-83.404" y2="558.565"><stop offset="0" stop-color="#d2deff" stop-opacity="0"/><stop offset="1" stop-color="#b7c5ff"/></linearGradient><g><path d="m465.3 164.1c-14.9-17.3-24.6-38.4-29.2-60.7-3.9-19-12.1-35.4-25-48.3-58.8-58.8-192.3-20.6-298.2 85.3-105.9 106-144.1 239.5-85.3 298.2 27.9 27.9 72.8 34 123.5 21.2 29.5-7.4 60.5-4.3 88.3 8 23.2 10.3 48.8 16.2 75.7 16.6 105.7 1.5 193.7-82.6 196.8-188.2 1.5-50.5-16.3-96.8-46.6-132.1z" fill="url(#SVGID_1_)"/><g><g><path d="m319.4 74.3c-13.4 5.2-28.4 5.2-41.8 0-3.6-1.4-7.8-.5-10.6 2.3l-220.1 220.1c-2.8 2.8-3.7 6.9-2.3 10.6 5.2 13.4 5.2 28.4 0 41.8-1.4 3.6-.5 7.8 2.3 10.6l96.8 96.8c2.8 2.8 6.9 3.7 10.6 2.3 13.4-5.2 28.4-5.2 41.8 0 3.6 1.4 7.8.5 10.6-2.3l220.1-220.1c2.8-2.8 3.7-6.9 2.3-10.6-5.2-13.4-5.2-28.4 0-41.8 1.4-3.6.5-7.8-2.3-10.6l-96.8-96.8c-2.8-2.8-7-3.7-10.6-2.3z" fill="#00c" opacity=".1"/><path d="m319.4 53.3c-13.4 5.2-28.4 5.2-41.8 0-3.6-1.4-7.8-.5-10.6 2.3l-220.1 220.1c-2.8 2.8-3.7 6.9-2.3 10.6 5.2 13.4 5.2 28.4 0 41.8-1.4 3.6-.5 7.8 2.3 10.6l96.8 96.8c2.8 2.8 6.9 3.7 10.6 2.3 13.4-5.2 28.4-5.2 41.8 0 3.6 1.4 7.8.5 10.6-2.3l220.1-220.1c2.8-2.8 3.7-6.9 2.3-10.6-5.2-13.4-5.2-28.4 0-41.8 1.4-3.6.5-7.8-2.3-10.6l-96.8-96.8c-2.8-2.8-7-3.7-10.6-2.3z" fill="#fff"/><path d="m191.4 405.3c-10.7-2-21.6-2-32.2 0-1.6.3-3.2-.2-4.4-1.4l-76.3-76.3c-1.2-1.2-1.7-2.8-1.4-4.4 2-10.7 2-21.6 0-32.2-.3-1.6.2-3.2 1.4-4.4l199.5-199.5c1.2-1.2 2.8-1.7 4.4-1.4 10.7 2 21.6 2 32.2 0 1.6-.3 3.2.2 4.4 1.4l76.3 76.3c1.2 1.2 1.7 2.8 1.4 4.4-2 10.7-2 21.6 0 32.2.3 1.6-.2 3.2-1.4 4.4l-199.5 199.5c-1.2 1.2-2.8 1.7-4.4 1.4z" fill="#fff"/><path d="m278 87.1-99.8 99.8 117.3 117.3 99.8-99.8c1.2-1.2 1.7-2.8 1.4-4.4-2-10.7-2-21.6 0-32.2.3-1.6-.2-3.2-1.4-4.4l-76.3-76.3c-1.2-1.2-2.8-1.7-4.4-1.4-10.7 2-21.6 2-32.2 0-1.6-.3-3.3.2-4.4 1.4z" fill="#6583fe"/><g fill="#00c"><path d="m230.7 416.4c-1.3 0-2.6-.5-3.5-1.5-2-2-2-5.1 0-7.1l196-196c1.4-1.4 1.9-3.4 1.2-5.2-5.6-14.6-5.6-30.8 0-45.4.7-1.8.2-3.8-1.2-5.2l-72.8-72.8c-2-2-2-5.1 0-7.1s5.1-2 7.1 0l72.8 72.8c4.2 4.2 5.5 10.4 3.4 15.9-4.8 12.3-4.8 25.9 0 38.2 2.1 5.5.8 11.7-3.4 15.9l-196 196c-1 1-2.3 1.5-3.6 1.5z"/><path d="m199.6 443.4c-1.8 0-3.6-.3-5.3-1-12.3-4.8-25.9-4.8-38.2 0-5.5 2.1-11.7.8-15.9-3.4l-96.8-96.8c-4.2-4.2-5.5-10.4-3.4-15.9 4.8-12.3 4.8-25.9 0-38.2-2.1-5.5-.8-11.7 3.4-15.9l220.1-220.2c4.2-4.2 10.4-5.5 15.9-3.4 12.3 4.8 25.9 4.8 38.2 0 5.5-2.1 11.7-.8 15.9 3.4 2 2 2 5.1 0 7.1s-5.1 2-7.1 0c-1.4-1.4-3.4-1.9-5.2-1.2-14.6 5.6-30.8 5.6-45.4 0-1.8-.7-3.8-.2-5.2 1.2l-220.1 220.1c-1.4 1.4-1.9 3.4-1.2 5.2 5.6 14.6 5.6 30.8 0 45.4-.7 1.8-.2 3.8 1.2 5.2l96.8 96.8c1.4 1.4 3.4 1.9 5.2 1.2 14.6-5.6 30.8-5.6 45.4 0 1.8.7 3.8.2 5.2-1.2 2-2 5.1-2 7.1 0s2 5.1 0 7.1c-2.8 2.9-6.7 4.5-10.6 4.5z"/><g><g><path d="m125.2 319.4h-15.6c-2.8 0-5-2.2-5-5v-15.6c0-2.8 2.2-5 5-5h15.6c2.8 0 5 2.2 5 5v15.6c0 2.7-2.2 5-5 5zm-10.5-10h5.6v-5.6h-5.6z"/><path d="m183.4 319.4h-15.6c-2.8 0-5-2.2-5-5v-15.6c0-2.8 2.2-5 5-5h15.6c2.8 0 5 2.2 5 5v15.6c0 2.7-2.2 5-5 5zm-10.6-10h5.6v-5.6h-5.6z"/></g><path d="m146.5 345.2c-2.8 0-5-2.2-5-5v-67.3c0-2.8 2.2-5 5-5s5 2.2 5 5v67.3c0 2.8-2.2 5-5 5z"/></g><path d="m163.3 365.8 30.1-30.1c2-2 5.1-2 7.1 0s2 5.1 0 7.1l-30.1 30.1c-2 2-5.1 2-7.1 0s-2-5.1 0-7.1"/><path d="m177 379.5 72.5-72.5c2-2 5.1-2 7.1 0s2 5.1 0 7.1l-72.5 72.5c-2 2-5.1 2-7.1 0s-2-5.1 0-7.1"/></g><g><circle cx="299.2" cy="183.2" fill="#fff" r="57.3"/><ellipse cx="237" cy="183.2" fill="#fff" rx="21.3" ry="21.3" transform="matrix(.16 -.987 .987 .16 18.233 387.809)"/><g><path d="m237 209.5c-14.5 0-26.3-11.8-26.3-26.3s11.8-26.3 26.3-26.3 26.3 11.8 26.3 26.3-11.8 26.3-26.3 26.3zm0-42.7c-9 0-16.3 7.3-16.3 16.3s7.3 16.3 16.3 16.3 16.3-7.3 16.3-16.3c.1-8.9-7.3-16.3-16.3-16.3z" fill="#00c"/></g><g><g fill="#00c"><path d="m303.2 212.7c-1.3 0-2.6-.5-3.5-1.5-2-2-2-5.1 0-7.1l14.8-14.8c1-1 1.5-2.2 1.5-3.6s-.5-2.6-1.5-3.6c-2-2-5.2-2-7.2 0l-9.2 9.2c-5.9 5.9-15.5 5.9-21.3 0s-5.9-15.5 0-21.3l14.8-14.8c2-2 5.1-2 7.1 0s2 5.1 0 7.1l-14.8 14.8c-2 2-2 5.2 0 7.2s5.2 2 7.2 0l9.2-9.2c5.9-5.9 15.5-5.9 21.3 0 2.9 2.9 4.4 6.6 4.4 10.7s-1.6 7.8-4.4 10.7l-14.8 14.8c-1 .9-2.3 1.4-3.6 1.4z"/><path d="m318.8 207.8c-1.3 0-2.6-.5-3.5-1.5l-39.3-39.2c-2-2-2-5.1 0-7.1s5.1-2 7.1 0l39.2 39.2c2 2 2 5.1 0 7.1-1 1-2.3 1.5-3.5 1.5z"/></g></g></g><g fill="#00c"><circle cx="178.4" cy="218.2" r="5.6"/><circle cx="190.4" cy="230.2" r="5.6"/><circle cx="202.4" cy="242.1" r="5.6"/></g><g><path d="m192.2 410.4c-.6 0-1.2-.1-1.8-.2-10.1-1.9-20.3-1.9-30.4 0-3.2.6-6.5-.4-8.8-2.8l-76.3-76.3c-2.3-2.3-3.4-5.6-2.8-8.8 1.9-10.1 1.9-20.3 0-30.4-.6-3.2.4-6.5 2.8-8.8l199.5-199.6c2.3-2.3 5.6-3.4 8.8-2.8 10.1 1.9 20.3 1.9 30.4 0 3.2-.6 6.5.4 8.8 2.8l76.3 76.3c2.3 2.3 3.4 5.6 2.8 8.8-1.9 10.1-1.9 20.3 0 30.4.6 3.2-.4 6.5-2.8 8.8l-199.4 199.6c-1.9 1.9-4.4 3-7.1 3zm89.3-319.8-199.5 199.5c2.1 11.3 2.1 22.7 0 34l76.3 76.2c11.2-2.1 22.7-2.1 34 0l199.5-199.5c-2.1-11.3-2.1-22.7 0-34l-76.3-76.2c-11.3 2.1-22.7 2.1-34 0z" fill="#00c"/></g></g><g fill="#6583fe"><path d="m156.8 118.2c-1.3 0-2.6-.5-3.5-1.5-2-2-2-5.1 0-7.1l10-10c2-2 5.1-2 7.1 0s2 5.1 0 7.1l-10 10c-1 1-2.3 1.5-3.6 1.5z"/><g><path d="m62 433.4c-1.3 0-2.6-.5-3.5-1.5-2-2-2-5.1 0-7.1l10-10c2-2 5.1-2 7.1 0s2 5.1 0 7.1l-10 10c-1.1 1-2.3 1.5-3.6 1.5z"/><path d="m458 179.7c-1.3 0-2.6-.5-3.5-1.5-2-2-2-5.1 0-7.1l10-10c2-2 5.1-2 7.1 0s2 5.1 0 7.1l-10 10c-1 1-2.3 1.5-3.6 1.5z"/></g><path d="m308.8 403c-1.3 0-2.6-.5-3.5-1.5-2-2-2-5.1 0-7.1l10-10c2-2 5.1-2 7.1 0s2 5.1 0 7.1l-10 10c-1.1 1.1-2.4 1.5-3.6 1.5z"/></g><g><path d="m377.9 363.9c-1.3 0-2.6-.5-3.5-1.5-2-2-2-5.1 0-7.1l10-10c.9-.9 2.2-1.5 3.5-1.5 1.3 0 2.6.5 3.5 1.5l10 10c2 2 2 5.1 0 7.1s-5.1 2-7.1 0l-6.5-6.5-6.5 6.5c-.8 1.1-2.1 1.5-3.4 1.5z" fill="#6583fe"/></g><g><path d="m115.8 142.9c-1.3 0-2.6-.5-3.5-1.5l-6.5-6.5-6.5 6.5c-2 2-5.1 2-7.1 0s-2-5.1 0-7.1l10-10c.9-.9 2.2-1.5 3.5-1.5s2.6.5 3.5 1.5l10 10c2 2 2 5.1 0 7.1-.8 1-2.1 1.5-3.4 1.5z" fill="#6583fe"/></g></g></g></svg>