<svg id="Capa_1" enable-background="new 0 0 512 512" height="512" viewBox="0 0 512 512" width="512" xmlns="http://www.w3.org/2000/svg" xmlns:xlink="http://www.w3.org/1999/xlink"><linearGradient id="SVGID_1_" gradientUnits="userSpaceOnUse" x1="256" x2="256" y1="-137" y2="599.327"><stop offset="0" stop-color="#d2deff" stop-opacity="0"/><stop offset="1" stop-color="#b7c5ff"/></linearGradient><g><path d="m419.843 204.806c1.055-7.758 1.57-15.687 1.509-23.748-.692-90.025-74.256-163.486-164.281-164.057-91.815-.581-166.428 73.673-166.428 165.354 0 7.615.516 15.109 1.513 22.45 4.043 29.747-9.887 59.143-35.212 75.263-35.611 22.668-56.944 51.54-56.944 82.98 0 72.876 114.615 131.954 256 131.954s256-59.078 256-131.954c0-31.44-21.334-60.312-56.946-82.98-25.325-16.12-39.254-45.516-35.211-75.262z" fill="url(#SVGID_1_)"/><g><g><path d="m381.528 83.012c-34.367 0-63.562 22.071-74.234 52.805h-245.373c-5.523 0-10 4.477-10 10v301.765c0 5.523 4.477 10 10 10h301.701c5.523 0 10-4.477 10-10v-207.8c2.6.26 5.237.396 7.905.396 43.4 0 78.583-35.183 78.583-78.583s-35.182-78.583-78.582-78.583z" fill="#00c" opacity=".1"/><g><path d="m212.804 275.699h-160.883v-150.882c0-5.523 4.477-10 10-10h150.882v160.882z" fill="#fff"/><g fill="#00c"><path d="m146.035 215.289h-5.332c-6.508 0-11.802-5.295-11.802-11.803v-16.457c0-6.508 5.294-11.803 11.802-11.803h5.332c6.508 0 11.803 5.295 11.803 11.803v16.457c0 6.508-5.295 11.803-11.803 11.803zm-5.331-30.062c-.994 0-1.802.809-1.802 1.803v16.457c0 .994.809 1.803 1.802 1.803h5.332c.994 0 1.803-.809 1.803-1.803v-16.457c0-.994-.809-1.803-1.803-1.803z"/><path d="m117.331 215.289c-2.761 0-5-2.238-5-5v-25.062h-.444c-2.761 0-5-2.238-5-5s2.239-5 5-5h5.444c2.761 0 5 2.238 5 5v30.062c0 2.762-2.238 5-5 5z"/></g><g><path d="m373.62 124.817v150.88h-160.88v-160.88h150.88c5.53 0 10 4.48 10 10z" fill="#fff"/><g fill="#00c"><path d="m313.186 215.289h-5.332c-6.508 0-11.803-5.295-11.803-11.803v-16.457c0-6.508 5.295-11.803 11.803-11.803h5.332c6.508 0 11.803 5.295 11.803 11.803v16.457c0 6.508-5.295 11.803-11.803 11.803zm-5.332-30.062c-.994 0-1.803.809-1.803 1.803v16.457c0 .994.809 1.803 1.803 1.803h5.332c.994 0 1.803-.809 1.803-1.803v-16.457c0-.994-.809-1.803-1.803-1.803z"/><path d="m284.482 214.849h-18.108c-2.122 0-4.012-1.34-4.716-3.341-.705-2.001-.068-4.23 1.586-5.559 5.043-4.05 12.846-11.451 14.406-15.228.6-1.451.505-3.052-.247-4.177-.585-.875-1.455-1.318-2.586-1.318-1.898 0-3.442 1.544-3.442 3.442 0 2.762-2.239 5-5 5s-5-2.238-5-5c0-7.412 6.03-13.442 13.442-13.442 4.479 0 8.452 2.1 10.899 5.759 2.624 3.924 3.063 8.991 1.177 13.557-1.353 3.273-4.398 6.996-7.593 10.307h5.184c2.761 0 5 2.238 5 5-.002 2.761-2.24 5-5.002 5z"/></g></g><g><path d="m212.804 436.581h-150.883c-5.523 0-10-4.477-10-10v-150.882h160.882v160.882z" fill="#fff"/><g fill="#00c"><path d="m151.742 376.171h-5.332c-6.508 0-11.803-5.294-11.803-11.802v-16.457c0-6.508 5.295-11.803 11.803-11.803h5.332c6.508 0 11.803 5.295 11.803 11.803v16.457c0 6.508-5.295 11.802-11.803 11.802zm-5.331-30.062c-.994 0-1.803.809-1.803 1.803v16.457c0 .993.809 1.802 1.803 1.802h5.332c.994 0 1.803-.809 1.803-1.802v-16.457c0-.994-.809-1.803-1.803-1.803z"/><path d="m128.09 348.625c0-6.901-5.614-12.516-12.516-12.516h-9.395c-2.761 0-5 2.238-5 5s2.239 5 5 5h9.395c1.387 0 2.516 1.129 2.516 2.516s-1.128 2.516-2.516 2.516h-9.395c-2.761 0-5 2.238-5 5s2.239 5 5 5h9.395c1.387 0 2.516 1.128 2.516 2.515s-1.128 2.516-2.516 2.516h-9.395c-2.761 0-5 2.238-5 5s2.239 5 5 5h9.395c6.901 0 12.516-5.614 12.516-12.516 0-2.822-.95-5.419-2.531-7.515 1.581-2.096 2.531-4.694 2.531-7.516z"/></g></g><g><path d="m363.623 436.581h-150.883v-160.882h160.882v150.882c.001 5.523-4.477 10-9.999 10z" fill="#6583fe"/><g><g><path d="m311.795 376.171h-5.331c-6.508 0-11.803-5.294-11.803-11.802v-16.457c0-6.508 5.295-11.803 11.803-11.803h5.331c6.508 0 11.803 5.295 11.803 11.803v16.457c0 6.508-5.295 11.802-11.803 11.802zm-5.331-30.062c-.994 0-1.803.809-1.803 1.803v16.457c0 .993.809 1.802 1.803 1.802h5.331c.994 0 1.803-.809 1.803-1.802v-16.457c0-.994-.809-1.803-1.803-1.803z" fill="#00c"/></g><path d="m283.388 336.109c-2.761 0-5 2.238-5 5v7.936h-5.623v-7.936c0-2.762-2.239-5-5-5s-5 2.238-5 5v12.936c0 2.762 2.239 5 5 5h10.623v11.51c0 2.762 2.239 5 5 5s5-2.238 5-5v-29.445c0-2.762-2.239-5.001-5-5.001z" fill="#00c"/></g></g><g fill="#00c"><g><path d="m212.772 131.004c-2.761 0-5-2.238-5-5v-11.188c0-2.762 2.239-5 5-5s5 2.238 5 5v11.188c0 2.762-2.239 5-5 5z"/><path d="m212.772 162.061c-2.761 0-5-2.238-5-5v-11.186c0-2.762 2.239-5 5-5s5 2.238 5 5v11.186c0 2.762-2.239 5-5 5z"/><path d="m212.772 193.119c-2.761 0-5-2.238-5-5v-11.186c0-2.762 2.239-5 5-5s5 2.238 5 5v11.186c0 2.762-2.239 5-5 5z"/><path d="m212.772 224.177c-2.761 0-5-2.238-5-5v-11.187c0-2.762 2.239-5 5-5s5 2.238 5 5v11.187c0 2.761-2.239 5-5 5z"/><path d="m212.772 255.235c-2.761 0-5-2.238-5-5v-11.188c0-2.762 2.239-5 5-5s5 2.238 5 5v11.188c0 2.762-2.239 5-5 5z"/><path d="m212.772 286.293c-2.761 0-5-2.238-5-5v-11.188c0-2.762 2.239-5 5-5s5 2.238 5 5v11.188c0 2.762-2.239 5-5 5z"/><path d="m212.772 317.351c-2.761 0-5-2.238-5-5v-11.188c0-2.762 2.239-5 5-5s5 2.238 5 5v11.188c0 2.761-2.239 5-5 5z"/><path d="m212.772 348.408c-2.761 0-5-2.238-5-5v-11.188c0-2.762 2.239-5 5-5s5 2.238 5 5v11.188c0 2.762-2.239 5-5 5z"/><path d="m212.772 379.466c-2.761 0-5-2.238-5-5v-11.186c0-2.762 2.239-5 5-5s5 2.238 5 5v11.186c0 2.762-2.239 5-5 5z"/><path d="m212.772 410.523c-2.761 0-5-2.238-5-5v-11.187c0-2.762 2.239-5 5-5s5 2.238 5 5v11.187c0 2.762-2.239 5-5 5z"/><path d="m212.772 441.581c-2.761 0-5-2.238-5-5v-11.187c0-2.762 2.239-5 5-5s5 2.238 5 5v11.187c0 2.762-2.239 5-5 5z"/></g><g><path d="m373.654 280.699h-11.187c-2.761 0-5-2.238-5-5s2.239-5 5-5h11.187c2.761 0 5 2.238 5 5s-2.239 5-5 5z"/><path d="m342.597 280.699h-11.188c-2.761 0-5-2.238-5-5s2.239-5 5-5h11.188c2.761 0 5 2.238 5 5s-2.239 5-5 5z"/><path d="m311.539 280.699h-11.187c-2.761 0-5-2.238-5-5s2.239-5 5-5h11.187c2.761 0 5 2.238 5 5s-2.239 5-5 5z"/><path d="m280.481 280.699h-11.187c-2.761 0-5-2.238-5-5s2.239-5 5-5h11.187c2.761 0 5 2.238 5 5s-2.239 5-5 5z"/><path d="m249.423 280.699h-11.187c-2.761 0-5-2.238-5-5s2.239-5 5-5h11.187c2.761 0 5 2.238 5 5s-2.238 5-5 5z"/><path d="m218.366 280.699h-11.188c-2.761 0-5-2.238-5-5s2.239-5 5-5h11.188c2.761 0 5 2.238 5 5s-2.239 5-5 5z"/><path d="m187.308 280.699h-11.187c-2.761 0-5-2.238-5-5s2.239-5 5-5h11.187c2.761 0 5 2.238 5 5s-2.239 5-5 5z"/><path d="m156.25 280.699h-11.187c-2.761 0-5-2.238-5-5s2.239-5 5-5h11.187c2.761 0 5 2.238 5 5s-2.239 5-5 5z"/><path d="m125.192 280.699h-11.187c-2.761 0-5-2.238-5-5s2.239-5 5-5h11.187c2.761 0 5 2.238 5 5s-2.238 5-5 5z"/><path d="m94.135 280.699h-11.188c-2.761 0-5-2.238-5-5s2.239-5 5-5h11.188c2.761 0 5 2.238 5 5s-2.239 5-5 5z"/><path d="m63.077 280.699h-11.187c-2.761 0-5-2.238-5-5s2.239-5 5-5h11.187c2.761 0 5 2.238 5 5s-2.239 5-5 5z"/></g><path d="m363.623 441.582h-301.702c-8.271 0-15-6.729-15-15v-301.766c0-8.271 6.729-15 15-15h211.703c2.761 0 5 2.238 5 5s-2.239 5-5 5h-211.703c-2.757 0-5 2.243-5 5v301.766c0 2.757 2.243 5 5 5h301.701c2.757 0 5-2.243 5-5v-174.335c0-2.762 2.239-5 5-5s5 2.238 5 5v174.335c.001 8.271-6.728 15-14.999 15z"/></g></g><g><ellipse cx="381.528" cy="140.595" fill="#6583fe" rx="78.583" ry="78.583" transform="matrix(.707 -.707 .707 .707 12.331 310.96)"/><circle cx="381.528" cy="140.595" fill="#fff" r="58.433"/><g fill="#00c"><g><g><path d="m360.961 136.034c-1.28 0-2.559-.488-3.536-1.465l-11.006-11.006c-.938-.938-1.464-2.209-1.464-3.535s.527-2.598 1.464-3.535l11.006-11.007c.938-.938 2.21-1.465 3.536-1.465s2.598.526 3.536 1.465l11.006 11.007c.938.938 1.464 2.209 1.464 3.535s-.527 2.598-1.464 3.535l-11.006 11.006c-.977.977-2.256 1.465-3.536 1.465zm-3.935-16.006 3.935 3.935 3.935-3.935-3.935-3.936z"/><path d="m402.095 177.168c-1.326 0-2.598-.526-3.536-1.465l-11.007-11.007c-.938-.938-1.464-2.209-1.464-3.535s.527-2.598 1.465-3.536l11.007-11.006c1.953-1.951 5.119-1.951 7.071.001l11.006 11.006c.938.938 1.464 2.209 1.464 3.535s-.527 2.598-1.464 3.535l-11.006 11.007c-.938.939-2.21 1.465-3.536 1.465zm-3.936-16.007 3.936 3.936 3.935-3.936-3.935-3.935z"/></g><path d="m357.737 169.386c-1.28 0-2.559-.488-3.536-1.465-1.953-1.952-1.953-5.118 0-7.07l47.582-47.582c1.953-1.953 5.118-1.953 7.071 0 1.953 1.952 1.953 5.118 0 7.07l-47.582 47.582c-.976.976-2.255 1.465-3.535 1.465z"/></g><path d="m381.528 224.177c-46.087 0-83.582-37.495-83.582-83.582 0-46.088 37.495-83.583 83.582-83.583s83.583 37.495 83.583 83.583c-.001 46.087-37.496 83.582-83.583 83.582zm0-157.165c-40.574 0-73.582 33.009-73.582 73.583 0 40.573 33.009 73.582 73.582 73.582 40.574 0 73.583-33.009 73.583-73.582-.001-40.575-33.009-73.583-73.583-73.583z"/></g></g></g><path d="m295.352 69.419c-1.28 0-2.559-.488-3.536-1.465-1.953-1.952-1.953-5.118 0-7.07l10-10c1.953-1.953 5.118-1.953 7.071 0 1.953 1.952 1.953 5.118 0 7.07l-10 10c-.976.977-2.256 1.465-3.535 1.465z" fill="#6583fe"/><g><path d="m253.83 76.593c-1.28 0-2.559-.488-3.536-1.465l-6.464-6.464-6.464 6.464c-1.953 1.953-5.118 1.953-7.071 0-1.953-1.952-1.953-5.118 0-7.07l10-10c1.953-1.953 5.118-1.953 7.071 0l10 10c1.953 1.952 1.953 5.118 0 7.07-.977.976-2.257 1.465-3.536 1.465z" fill="#6583fe"/></g><g><path d="m430.319 358.625c-1.28 0-2.559-.488-3.536-1.465l-6.464-6.464-6.464 6.464c-1.953 1.953-5.118 1.953-7.071 0-1.953-1.952-1.953-5.118 0-7.07l10-10c1.953-1.953 5.118-1.953 7.071 0l10 10c1.953 1.952 1.953 5.118 0 7.07-.977.977-2.256 1.465-3.536 1.465z" fill="#6583fe"/></g><g fill="#6583fe"><path d="m405.319 285.699c-1.28 0-2.559-.488-3.536-1.465-1.953-1.952-1.953-5.118 0-7.07l10-10c1.953-1.953 5.118-1.953 7.071 0 1.953 1.952 1.953 5.118 0 7.07l-10 10c-.976.977-2.255 1.465-3.535 1.465z"/><path d="m77.947 76.593c-1.28 0-2.559-.488-3.536-1.465-1.953-1.952-1.953-5.118 0-7.07l10-10c1.953-1.953 5.118-1.953 7.071 0 1.953 1.952 1.953 5.118 0 7.07l-10 10c-.976.976-2.255 1.465-3.535 1.465z"/></g></g></g></svg>